<?xml version="1.0" encoding="UTF-8" standalone="no"?>
<!-- Created with Inkscape (http://www.inkscape.org/) -->

<svg
   xmlns:dc="http://purl.org/dc/elements/1.1/"
   xmlns:cc="http://creativecommons.org/ns#"
   xmlns:rdf="http://www.w3.org/1999/02/22-rdf-syntax-ns#"
   xmlns:svg="http://www.w3.org/2000/svg"
   xmlns="http://www.w3.org/2000/svg"
   xmlns:xlink="http://www.w3.org/1999/xlink"
   xmlns:sodipodi="http://sodipodi.sourceforge.net/DTD/sodipodi-0.dtd"
   xmlns:inkscape="http://www.inkscape.org/namespaces/inkscape"
   width="512"
   height="512"
   id="svg2"
   version="1.1"
   inkscape:version="0.48.3.1 r9886"
   sodipodi:docname="boss.svg"
   inkscape:export-filename="/home/mateusz/programming/c/theseus/gfx/boss.png"
   inkscape:export-xdpi="90"
   inkscape:export-ydpi="90">
  <defs
     id="defs4">
    <linearGradient
       inkscape:collect="always"
       id="linearGradient5656">
      <stop
         style="stop-color:#000000;stop-opacity:1;"
         offset="0"
         id="stop5658" />
      <stop
         style="stop-color:#000000;stop-opacity:0;"
         offset="1"
         id="stop5660" />
    </linearGradient>
    <linearGradient
       id="linearGradient5648">
      <stop
         style="stop-color:#ffffff;stop-opacity:0.16862746;"
         offset="0"
         id="stop5650" />
      <stop
         style="stop-color:#ffffff;stop-opacity:0;"
         offset="1"
         id="stop5652" />
    </linearGradient>
    <linearGradient
       inkscape:collect="always"
       xlink:href="#linearGradient5648"
       id="linearGradient5654"
       x1="-10.399495"
       y1="379.41748"
       x2="232.43105"
       y2="239.41034"
       gradientUnits="userSpaceOnUse" />
    <linearGradient
       inkscape:collect="always"
       xlink:href="#linearGradient5656"
       id="linearGradient5662"
       x1="-10.399495"
       y1="379.41748"
       x2="-10.399495"
       y2="108.09708"
       gradientUnits="userSpaceOnUse" />
  </defs>
  <sodipodi:namedview
     id="base"
     pagecolor="#ffffff"
     bordercolor="#666666"
     borderopacity="1.0"
     inkscape:pageopacity="0.0"
     inkscape:pageshadow="2"
     inkscape:zoom="1"
     inkscape:cx="203.17153"
     inkscape:cy="271.16162"
     inkscape:document-units="px"
     inkscape:current-layer="layer2"
     showgrid="false"
     inkscape:window-width="1364"
     inkscape:window-height="747"
     inkscape:window-x="0"
     inkscape:window-y="0"
     inkscape:window-maximized="0" />
  <metadata
     id="metadata7">
    <rdf:RDF>
      <cc:Work
         rdf:about="">
        <dc:format>image/svg+xml</dc:format>
        <dc:type
           rdf:resource="http://purl.org/dc/dcmitype/StillImage" />
        <dc:title></dc:title>
      </cc:Work>
    </rdf:RDF>
  </metadata>
  <g
     inkscape:label="background"
     inkscape:groupmode="layer"
     id="layer1"
     transform="translate(0,-540.36218)"
     style="opacity:0.93999999"
     sodipodi:insensitive="true">
    <rect
       style="fill:#d8433f;fill-opacity:1;stroke:none"
       id="rect3774"
       width="512"
       height="512"
       x="0"
       y="540.36218" />
  </g>
  <g
     inkscape:groupmode="layer"
     id="layer2"
     inkscape:label="rat">
    <g
       id="g5622"
       transform="matrix(0.30782366,0,0,0.30782366,-211.89212,104.36795)"
       style="opacity:0.6">
      <path
         inkscape:connector-curvature="0"
         id="path5090"
         d="m 137.88582,58.037446 c -2.82842,2.828427 -19.20461,16.598721 -28.28427,25.455844 -8.59321,8.382593 -17.730746,16.423396 -24.748736,26.16295 -6.719449,9.32524 -11.080645,20.14647 -16.263456,30.40559 -4.94411,9.78663 -8.977782,20.02628 -14.142136,29.69849 -4.778868,8.95024 -9.266802,18.20142 -15.556349,26.16295 -6.716321,8.50176 -15.182943,15.49015 -23.334524,22.62742 -8.5856041,7.51729 -18.4292328,13.5337 -26.870058,21.2132 -10.851403,9.87265 -23.754447,18.7437 -30.405591,31.8198 -6.623619,13.02199 -7.125622,28.53836 -7.778175,43.13352 -0.591901,13.23861 -0.356262,26.9305 3.535534,39.59798 2.850694,9.27878 8.521554,17.54185 14.142136,25.45584 8.409859,11.8414 17.96695,23.07141 28.9913779,32.52691 11.512997,9.87454 24.3831051,18.4561 38.1837661,24.74874 13.167944,6.00414 27.448226,9.61647 41.7193,12.02082 17.456776,2.94107 35.373781,4.0696 53.033011,2.82842 12.21957,-0.85885 24.26416,-3.77622 36.06244,-7.07106 17.16488,-4.79354 33.79077,-11.44231 50.20459,-18.38478 13.49584,-5.70827 25.57176,-14.85072 39.59797,-19.09188 8.20007,-2.47949 16.89274,-3.28639 25.45585,-3.53554 11.81776,-0.34385 23.82948,0.19552 35.35534,2.82843 7.63835,1.74487 15.037,4.74243 21.92031,8.48528 7.41413,4.03149 14.9234,8.52027 20.50609,14.84924 5.51257,6.24948 9.82681,13.88098 12.02082,21.92031 1.98676,7.27992 -6.46798,20.29021 0.70711,22.62742 2.55527,0.83235 3.83134,-3.92032 4.94974,-6.36396 2.50082,-5.46416 3.6785,-11.67012 3.53554,-17.67767 -0.16183,-6.80085 -1.99365,-13.67206 -4.94975,-19.79899 -3.8718,-8.02484 -9.49983,-15.41302 -16.26346,-21.2132 -8.56773,-7.3473 -18.99923,-12.66973 -29.69848,-16.26346 -12.19719,-4.09686 -25.32085,-5.33938 -38.18377,-5.65685 -12.07477,-0.29801 -24.34037,0.62315 -36.06244,3.53553 -9.64275,2.39577 -18.2853,7.79471 -27.57717,11.31371 -10.73536,4.06568 -21.447,8.31147 -32.52691,11.31371 -15.30341,4.14665 -46.66905,9.19239 -46.66905,9.19239 0,0 -45.38057,-0.80648 -67.17514,-6.36397 C 65.662717,412.54876 50.088297,406.59261 36.769553,397.4487 26.188738,390.1845 17.834727,379.95887 9.8994949,369.87154 2.5002265,360.46553 -5.492373,350.84717 -9.1923882,339.46595 c -2.1912248,-6.74019 -2.2001678,-14.16626 -1.4437608,-21.21321 0.402842,-3.75301 0.9104834,-7.83795 3.1490923,-10.87703 2.4425795,-3.31599 10.3154838,-6.80064 10.3154838,-6.80064 0,0 5.2983106,13.16237 9.8994949,18.38478 5.36151,6.08539 12.405221,10.80897 19.79899,14.14213 5.733636,2.58476 13.089293,0.84951 18.384776,4.24265 5.517663,3.53551 7.451956,10.85848 12.020816,15.55634 7.006728,7.20457 17.421593,10.96556 23.334523,19.09189 3.425078,4.7072 2.815403,11.64863 6.363961,16.26345 5.345091,6.95118 21.213202,15.55635 21.213202,15.55635 l 10.42983,14.67247 c 0,0 2.65165,3.53553 3.71231,4.24264 1.06066,0.70711 6.36396,5.3033 7.42462,5.3033 1.06066,0 4.24264,-2.82843 4.24264,-2.82843 l -0.88388,-5.12652 c 0,0 -5.12653,-3.71231 -5.65686,-4.5962 -0.53033,-0.88388 -2.65165,-5.83363 -1.59099,-5.48007 1.06066,0.35355 6.18719,2.65165 7.24785,4.06586 1.06066,1.41421 1.94454,1.94454 3.88908,4.94975 1.94455,3.0052 5.3033,6.18718 7.24785,7.6014 1.94454,1.41421 4.94975,2.65165 7.07107,3.0052 2.12132,0.35355 5.12652,1.06066 6.18718,0.88388 1.06066,-0.17677 3.71231,-1.59099 3.53553,-2.82842 -0.17677,-1.23744 1.06066,-3.88909 -1.41421,-5.48008 -2.47487,-1.59099 -4.94975,-3.71231 -4.94975,-3.71231 0,0 2.2981,-1.41422 4.06587,-1.23744 1.76776,0.17678 5.48007,1.06066 6.71751,1.94454 1.23744,0.88389 11.66726,0.70711 11.66726,0.70711 0,0 0,-5.48008 -0.7071,-6.01041 -0.70711,-0.53033 -4.06587,-4.41941 -4.06587,-4.41941 0,0 5.12653,-1.59099 5.48008,-2.47488 0.35355,-0.88388 1.76777,-3.53553 1.76777,-3.53553 0,0 -1.76777,-2.65165 -3.71231,-3.71231 -1.94455,-1.06066 -5.83363,-5.12653 -9.54595,-6.18719 -3.71231,-1.06066 -10.78337,-1.41421 -15.9099,-1.59099 -5.12652,-0.17677 -10.07627,-0.7071 -10.25305,-2.29809 -0.17677,-1.59099 0.35356,-2.47488 0.35356,-2.47488 0,0 25.68334,1.02742 38.18376,-1.41421 5.41531,-1.05774 10.32642,-3.89837 15.55635,-5.65685 5.67093,-1.90676 11.23422,-4.3922 17.14734,-5.30331 20.03431,-3.08695 41.24967,4.96151 60.81119,-0.35355 7.49051,-2.03525 20.15254,-11.66726 20.15254,-11.66726"
         style="fill:url(#linearGradient5654);fill-opacity:1;stroke:url(#linearGradient5662);stroke-width:1.00005281;stroke-linecap:butt;stroke-linejoin:miter;stroke-miterlimit:4;stroke-opacity:1;stroke-dasharray:none"
         sodipodi:nodetypes="caaaaaaaaaaaaaaaaaaaaaaaaaaaaaaaaacaaaaaacaaaaaaccssccssssssssscsscscscsssscaaaac" />
      <path
         inkscape:connector-curvature="0"
         id="path5066"
         d="m 348.8125,231.6875 c 0,0 -0.37824,-3.09579 -0.875,-4.5625 -0.31382,-0.92658 -0.75556,-1.82073 -1.3125,-2.625 -0.88962,-1.28468 -2.30988,-2.14458 -3.1875,-3.4375 -0.8426,-1.24133 -1.02331,-2.87291 -1.9375,-4.0625 -1.68398,-2.1913 -3.83398,-4.1525 -6.3125,-5.375 -0.80255,-0.39585 -1.73593,-0.66419 -2.625,-0.5625 -1.12039,0.12815 -2.14518,0.78158 -3.0625,1.4375 -1.39025,0.99409 -2.76723,2.1747 -3.5625,3.6875 -0.78138,1.48638 -0.84857,3.26509 -1,4.9375 -0.19542,2.15824 -0.47814,4.41856 0.125,6.5 0.44749,1.54429 1.40011,2.95226 2.5,4.125 1.32051,1.40797 2.9146,2.71465 4.75,3.3125 0.95104,0.30978 2.01223,0.2198 3,0.0625 1.74383,-0.2777 3.42101,-0.95954 5,-1.75 1.43639,-0.71908 2.4055,-2.49295 4,-2.6875 0.96821,-0.11814 1.7894,0.83077 2.75,1 0.57449,0.10121 1.75,0 1.75,0 z"
         style="fill:#000000;stroke:#000000;stroke-width:1px;stroke-linecap:butt;stroke-linejoin:miter;stroke-opacity:1"
         sodipodi:nodetypes="caaaaaaaaaaaaaaaac" />
      <path
         inkscape:connector-curvature="0"
         id="path5068"
         d="m 403.5,210.3125 c 0,0 2.83159,-0.97878 4,-1.875 1.10272,-0.84583 2.07705,-1.93899 2.6875,-3.1875 0.6174,-1.26274 0.79818,-2.72151 0.875,-4.125 0.0801,-1.46342 -0.0228,-2.9693 -0.4375,-4.375 -0.50359,-1.7069 -1.2731,-3.40416 -2.4375,-4.75 -0.86993,-1.00549 -2.009,-1.83531 -3.25,-2.3125 -0.84178,-0.32368 -1.86011,-0.67138 -2.6875,-0.3125 -1.09328,0.47422 -1.67075,1.77327 -2.125,2.875 -0.60196,1.45999 -0.80075,3.11235 -0.6875,4.6875 0.18861,2.62327 1.48351,5.04663 2.25,7.5625 0.59147,1.94141 1.8125,5.8125 1.8125,5.8125 z"
         style="fill:#000000;stroke:#000000;stroke-width:1px;stroke-linecap:butt;stroke-linejoin:miter;stroke-opacity:1"
         sodipodi:nodetypes="caaaaaaaaaac" />
      <path
         inkscape:connector-curvature="0"
         id="path5070"
         d="m 298.39906,170.90937 c 0,0 -3.01349,-5.91915 -4.41942,-8.92723 -1.82653,-3.90798 -2.88453,-8.21391 -5.21491,-11.84404 -2.29991,-3.58266 -5.22612,-6.80681 -8.48528,-9.54594 -2.91683,-2.45142 -6.18727,-4.58987 -9.72272,-6.01041 -2.87938,-1.15693 -6.01071,-1.6978 -9.104,-1.94454 -2.29383,-0.18297 -4.64507,-0.13241 -6.89429,0.35355 -2.59904,0.56154 -5.2567,1.37719 -7.42462,2.91682 -1.8056,1.28231 -3.31562,3.07003 -4.33103,5.03814 -1.34986,2.61637 -1.76515,5.65123 -2.12132,8.57367 -0.26376,2.16423 -0.22163,4.37178 0,6.54073 0.28135,2.75344 0.71744,5.53649 1.67938,8.13173 1.18256,3.19043 3.02508,6.12135 4.94975,8.92722 1.45528,2.12157 3.12173,4.11169 4.94974,5.92202 1.94869,1.92985 3.99955,3.82523 6.36397,5.21492 2.21216,1.3002 4.64668,2.30861 7.15945,2.82842 1.81859,0.3762 3.94523,-0.72537 5.56847,0.17678 1.02138,0.56766 1.49736,1.83724 1.94454,2.91682 0.45993,1.11036 0.70711,3.53553 0.70711,3.53553"
         style="fill:none;stroke:#000000;stroke-width:1px;stroke-linecap:butt;stroke-linejoin:miter;stroke-opacity:1"
         sodipodi:nodetypes="caaaaaaaaaaaaaaaaac" />
      <path
         inkscape:connector-curvature="0"
         id="path5072"
         d="m 259.06625,135.37725 c 0,0 3.33708,0.95634 4.94974,1.59099 2.96804,1.16806 5.8864,2.49445 8.66206,4.06586 2.06931,1.17152 4.1337,2.41018 5.92202,3.97748 1.50704,1.32078 2.75144,2.92273 3.97748,4.50781 0.86993,1.12469 1.79186,2.24397 2.38648,3.53553 0.74132,1.61022 1.26808,3.35988 1.41422,5.12652 0.16362,1.978 -0.21054,3.97969 -0.61872,5.92202 -0.4963,2.36167 -2.41853,4.49009 -2.20971,6.89429 0.11518,1.32606 0.73657,2.81567 1.85616,3.53554 0.89353,0.57452 2.13101,0.022 3.18198,0.17677 0.86959,0.12802 2.56326,0.61872 2.56326,0.61872"
         style="fill:none;stroke:#000000;stroke-width:1px;stroke-linecap:butt;stroke-linejoin:miter;stroke-opacity:1"
         sodipodi:nodetypes="caaaaaaaaaac" />
      <path
         inkscape:connector-curvature="0"
         id="path5074"
         d="m 381.13056,110.18657 c 0,0 4.98308,-3.84739 7.42462,-5.83363 2.27083,-1.84737 4.81901,-3.4286 6.71751,-5.656854 1.55983,-1.830755 2.08417,-4.416904 3.71231,-6.187184 1.22882,-1.336096 2.61483,-3.378436 4.41942,-3.181981 1.49349,0.162587 2.21561,2.08068 3.0052,3.358757 1.59881,2.587911 2.30119,5.633087 3.35876,8.485282 1.1273,3.04024 2.36535,6.0544 3.18198,9.19239 0.67829,2.60641 1.48498,5.26265 1.41421,7.95495 -0.0684,2.60052 -1.12811,5.07985 -1.76776,7.6014 -0.60107,2.36947 -1.0874,4.78174 -1.94455,7.07106 -1.19213,3.184 -2.59073,6.32622 -4.41941,9.19239 -1.14845,1.80002 -4.06587,4.94975 -4.06587,4.94975"
         style="fill:none;stroke:#000000;stroke-width:1px;stroke-linecap:butt;stroke-linejoin:miter;stroke-opacity:1"
         sodipodi:nodetypes="caaaaaaaaaaac" />
      <path
         inkscape:connector-curvature="0"
         id="path5076"
         d="m 392.79782,146.07224 c 0,0 2.79173,-3.02753 3.18198,-4.94975 0.34501,-1.69938 -0.29753,-3.49461 -0.88389,-5.12652 -0.96385,-2.68253 -2.89764,-4.91146 -4.24264,-7.42462 -0.6839,-1.27788 -1.81292,-2.4457 -1.94454,-3.88909 -0.21169,-2.32147 1.09569,-4.54646 1.94454,-6.71751 0.76768,-1.96345 2.02166,-3.70915 2.82843,-5.65686 0.92702,-2.23801 1.83565,-4.51643 2.2981,-6.89429 0.18034,-0.92728 -0.14667,-1.94088 0.17677,-2.82843 0.57704,-1.58345 2.10929,-2.638414 3.00521,-4.065861 0.67258,-1.071603 0.96754,-2.378791 1.76777,-3.358757 0.52971,-0.648688 1.10746,-1.617219 1.94454,-1.59099 1.12522,0.03526 1.84622,1.364206 2.47487,2.298097 1.02059,1.516134 1.94455,5.126521 1.94455,5.126521"
         style="fill:none;stroke:#000000;stroke-width:1px;stroke-linecap:butt;stroke-linejoin:miter;stroke-opacity:1"
         sodipodi:nodetypes="caaaaaaaaaaaac" />
      <path
         inkscape:connector-curvature="0"
         id="path5078"
         d="m 397.125,292.5 c -0.25,0.125 -1.38177,2.40891 -1.5,3.75 -0.099,1.12334 0.31011,2.24982 0.6875,3.3125 0.43967,1.23807 0.93233,2.52459 1.8125,3.5 1.01809,1.12826 2.39049,1.96396 3.8125,2.5 2.08698,0.78671 4.40359,0.73813 6.625,0.9375 1.07979,0.0969 2.26601,0.58009 3.25,0.125 1.00999,-0.46711 1.1052,-2.05767 2.0625,-2.625 0.65411,-0.38765 1.52033,-0.16121 2.25,-0.375 1.37035,-0.40151 2.81707,-0.80223 3.9375,-1.6875 0.63099,-0.49855 1.05409,-1.23061 1.4375,-1.9375 0.37085,-0.68374 0.65782,-1.42519 0.8125,-2.1875 0.27785,-1.36933 0.83491,-2.94931 0.1875,-4.1875 -0.52492,-1.00393 -2.5625,-1.5625 -2.875,-1.8125"
         style="fill:none;stroke:#000000;stroke-width:1px;stroke-linecap:butt;stroke-linejoin:miter;stroke-opacity:1"
         sodipodi:nodetypes="caaaaaaaaaaaac" />
      <path
         inkscape:connector-curvature="0"
         id="path5080"
         d="m 276,252.25 4.25,2.75 -5.25,0 6.5,4.5 -4.75,-0.25 9.75,6.25 -2.5,2.25 9,5.5 c 0,0 12,7 11,7 -1,0 -5,-0.25 -5,-0.25 l 10.5,6.5 c 0,0 7.13744,3.73412 11,4.75 4.53901,1.1938 9.41089,0.51622 14,1.5 4.20008,0.90038 8.37196,2.15279 12.25,4 4.29891,2.04767 8.00485,5.15917 12,7.75 3.5877,2.32661 6.96771,5.00525 10.75,7 4.22985,2.23079 8.56018,4.5653 13.25,5.5 3.92285,0.78184 8.0424,0.58085 12,0 3.44321,-0.50536 6.88361,-1.45106 10,-3 2.40308,-1.1944 3.9936,-3.79117 6.5,-4.75 1.56441,-0.59847 3.45628,0.15 5,-0.5 3.70727,-1.56099 6.43242,-4.87915 9.25,-7.75 2.32461,-2.36856 4.93054,-4.70485 6.25,-7.75 1.67274,-3.86048 1.56806,-8.29663 1.75,-12.5 0.13713,-3.16808 -0.21028,-6.34221 -0.5,-9.5 -0.46842,-5.10542 -1.12546,-10.19828 -2,-15.25 -0.74163,-4.28401 -1.99739,-8.4679 -2.75,-12.75 -0.64059,-3.64473 -1.40973,-7.3005 -1.5,-11 -0.0939,-3.84665 0.42657,-7.69517 1,-11.5 0.64793,-4.29918 2.34914,-8.42079 2.75,-12.75 0.27671,-2.98837 -0.0673,-6.00441 -0.25,-9 -0.27007,-4.42805 -1.25,-13.25 -1.25,-13.25"
         style="fill:none;stroke:#000000;stroke-width:1px;stroke-linecap:butt;stroke-linejoin:miter;stroke-opacity:1"
         sodipodi:nodetypes="ccccccccsccaaaaaaaaaaaaaaaaaaaac" />
      <path
         inkscape:connector-curvature="0"
         id="path5082"
         d="m 267.5,197 c -1.5,-0.75 -10.5,-3.25 -9.5,-3.25 1,0 7.5,4.25 6.25,4 -1.25,-0.25 -6,-0.25 -6,-0.25 l 5.75,3 -10.5,-0.5 c 0,0 9.5,2.5 8,2.75 -1.5,0.25 -10,1.25 -8.75,1.25 1.25,0 12,3.5 11,3.5 -1,0 -14.25,2.5 -14.25,2.5 l 12.25,1 -7,1.75 c 0,0 7,2.5 6,2.5 -1,0 -8,0.75 -8,0.75 l 10.75,3 -8.5,3.75 9.5,3"
         style="fill:none;stroke:#000000;stroke-width:1px;stroke-linecap:butt;stroke-linejoin:miter;stroke-opacity:1" />
      <path
         inkscape:connector-curvature="0"
         id="path5084"
         d="m 315.36962,365.6289 c -1.41421,0 -16.30167,-2.37228 -24.39518,-3.88909 -6.04341,-1.1326 -12.06164,-2.41612 -18.03122,-3.88909 -13.65816,-3.3701 -28.23258,-4.71857 -40.65864,-11.31371 -5.46488,-2.90049 -10.34174,-7.13872 -14.14214,-12.02081 -4.59731,-5.90582 -7.91607,-12.93591 -9.89949,-20.15255 -1.5666,-5.70002 -1.41422,-17.67767 -1.41422,-17.67767"
         style="fill:none;stroke:#000000;stroke-width:1px;stroke-linecap:butt;stroke-linejoin:miter;stroke-opacity:1"
         sodipodi:nodetypes="caaaaac" />
      <path
         inkscape:connector-curvature="0"
         id="path5086"
         d="m 288.85312,310.12101 14.14214,9.8995 22.98097,14.14213 18.03122,10.25305 7.77817,9.54594 9.19239,9.19239 9.8995,0.53033 9.19239,1.23744 5.48007,2.82843 3.00521,3.88908 -4.06587,-1.23743 c 0,0 -0.7071,2.47487 -2.29809,2.47487 -1.59099,0 -5.48008,0 -6.71752,-0.35355 -1.23744,-0.35356 -8.13173,-1.41422 -8.13173,-1.41422 l 2.82843,3.53554 6.71751,4.77297 6.36397,4.06586 6.36396,2.12132 3.0052,3.35876 -0.70711,2.65165 c 0,0 -5.65685,0 -6.54073,-0.53033 -0.88389,-0.53033 -6.71752,-3.35876 -8.30851,-4.24264 -1.59099,-0.88388 -10.07627,-4.41942 -10.07627,-4.41942 l -3.88909,-2.29809 5.12653,6.36396 7.24784,7.24784 2.2981,3.35876 c 0,0 3.18198,5.83363 1.76777,6.01041 -1.41422,0.17677 -5.12653,0.53033 -6.18719,-0.17678 -1.06066,-0.70711 -6.54074,-4.94975 -6.54074,-4.94975 0,0 -6.89429,-8.83883 -7.24784,-9.72272 -0.35355,-0.88388 -4.5962,-5.12652 -5.3033,-5.3033 -0.70711,-0.17677 -2.12132,-1.76776 -2.12132,0.88389 0,2.65165 0.17677,6.18718 1.76776,7.07106 1.59099,0.88389 3.35876,6.18719 3.35876,6.18719 0,0 -1.94454,5.3033 -2.65165,4.94975 -0.70711,-0.35356 -4.77297,-7.95496 -4.77297,-7.95496 l -7.42462,-10.25304 -5.12652,-7.07107 -6.36397,-6.18719 -4.77297,-3.35875 -6.18718,-1.76777 -4.5962,-0.17678"
         style="fill:none;stroke:#000000;stroke-width:1px;stroke-linecap:butt;stroke-linejoin:miter;stroke-opacity:1" />
      <path
         inkscape:connector-curvature="0"
         id="path5092"
         d="m 324.20846,333.10198 36.76955,-27.57716"
         style="fill:none;stroke:#000000;stroke-width:1px;stroke-linecap:butt;stroke-linejoin:miter;stroke-opacity:1" />
      <path
         inkscape:connector-curvature="0"
         id="path5094"
         d="m 335.5,214.75 -1.84375,-1.15625 c 0,0 -0.6875,-0.25 -1.3125,0.0937 -0.625,0.34375 -1.03125,0.5 -1.125,1.03125 -0.0937,0.53125 -0.46875,1 -0.125,1.40625 0.34375,0.40625 0.40625,1.3125 1.0625,1.4375 0.65625,0.125 1.65625,0.65625 2.0625,0.6875 0.40625,0.0312 1.8125,0.65625 2.15625,0.84375 0.34375,0.1875 0.75,0.78125 1.46875,0.25 0.71875,-0.53125 0.90625,-0.375 1.09375,-0.75 0.1875,-0.375 0.3125,-0.5 0.375,-1.03125 0.0625,-0.53125 0.25,-0.46875 -0.1875,-0.9375 -0.4375,-0.46875 -0.21875,-0.5 -0.78125,-0.78125 -0.5625,-0.28125 -0.65625,-0.40625 -1.1875,-0.5625 C 336.625,215.125 335.5,214.75 335.5,214.75 z"
         style="fill:#ffffff;stroke:#000000;stroke-width:1px;stroke-linecap:butt;stroke-linejoin:miter;stroke-opacity:1" />
      <path
         inkscape:connector-curvature="0"
         id="path5096"
         d="m 405.9375,194.25 c 0,0 -0.375,-1.875 -0.8125,-2.28125 -0.4375,-0.40625 -0.9375,-0.625 -1.375,-0.75 -0.4375,-0.125 -1.15625,-0.40625 -1.5,-0.15625 -0.34375,0.25 -0.84375,0.1875 -1.125,0.71875 -0.28125,0.53125 -0.53125,0.46875 -0.28125,1.21875 0.25,0.75 0.125,0.8125 0.75,1.5 0.625,0.6875 0.65625,0.90625 1.3125,1.25 0.65625,0.34375 0.21875,0.65625 1.09375,0.34375 0.875,-0.3125 0.75,-0.125 1.0625,-0.375 0.3125,-0.25 0.34375,-0.28125 0.5,-0.53125 0.15625,-0.25 0.375,-0.9375 0.375,-0.9375 z"
         style="fill:#ffffff;stroke:#000000;stroke-width:1px;stroke-linecap:butt;stroke-linejoin:miter;stroke-opacity:1" />
      <path
         inkscape:connector-curvature="0"
         id="path5098"
         d="m 364.5,280 c -2,-0.5 -54.5,14.5 -54.5,14.5 l -56,32 -52.5,39"
         style="opacity:0.4;fill:none;stroke:#ffffff;stroke-width:1px;stroke-linecap:butt;stroke-linejoin:miter;stroke-opacity:1" />
      <path
         inkscape:connector-curvature="0"
         id="path5100"
         d="m 370,286.5 -45,22 -48.5,40.5 -52,48.5"
         style="opacity:0.4;fill:none;stroke:#ffffff;stroke-width:1px;stroke-linecap:butt;stroke-linejoin:miter;stroke-opacity:1" />
      <path
         inkscape:connector-curvature="0"
         id="path5102"
         d="m 373.5,297 -55,37 -60.5,60.5"
         style="opacity:0.4;fill:none;stroke:#ffffff;stroke-width:1px;stroke-linecap:butt;stroke-linejoin:miter;stroke-opacity:1" />
      <path
         inkscape:connector-curvature="0"
         id="path5104"
         d="m 386.5,304 -32,32.5 -19,25"
         style="opacity:0.4;fill:none;stroke:#ffffff;stroke-width:1px;stroke-linecap:butt;stroke-linejoin:miter;stroke-opacity:1" />
      <path
         inkscape:connector-curvature="0"
         id="path5106"
         d="m 425.5,261.5 46,-22"
         style="opacity:0.4;fill:none;stroke:#ffffff;stroke-width:1px;stroke-linecap:butt;stroke-linejoin:miter;stroke-opacity:1" />
      <path
         inkscape:connector-curvature="0"
         id="path5108"
         d="m 426,272 67,-23.5 35.5,-2"
         style="opacity:0.4;fill:none;stroke:#ffffff;stroke-width:1px;stroke-linecap:butt;stroke-linejoin:miter;stroke-opacity:1" />
      <path
         inkscape:connector-curvature="0"
         id="path5110"
         d="m 425,252.5 c 2,0 61.5,-30.5 61.5,-30.5 l 30,-10"
         style="opacity:0.4;fill:none;stroke:#ffffff;stroke-width:1px;stroke-linecap:butt;stroke-linejoin:miter;stroke-opacity:1" />
      <path
         inkscape:connector-curvature="0"
         id="path5112"
         d="m 427.5,280 23.5,-7.5 31,-2"
         style="opacity:0.4;fill:none;stroke:#ffffff;stroke-width:1px;stroke-linecap:butt;stroke-linejoin:miter;stroke-opacity:1" />
    </g>
    <g
       id="g5771"
       transform="matrix(1.0849668,0,0,1.0849668,-43.160378,3.254977)">
      <path
         transform="matrix(1.0919919,0,0,1.4946383,-53.17995,-48.897934)"
         d="m 290.44563,132.71906 c 0,2.83454 -2.62171,5.1324 -5.85576,5.1324 -3.23404,0 -5.85575,-2.29786 -5.85575,-5.1324 0,-2.83455 2.62171,-5.13241 5.85575,-5.13241 3.23405,0 5.85576,2.29786 5.85576,5.13241 z"
         sodipodi:ry="5.1324005"
         sodipodi:rx="5.8557587"
         sodipodi:cy="132.71906"
         sodipodi:cx="284.58987"
         id="path5707"
         style="fill:#000000;fill-opacity:1;stroke:#ffffff;stroke-width:0.62199998;stroke-linecap:round;stroke-miterlimit:4;stroke-opacity:1;stroke-dasharray:none"
         sodipodi:type="arc" />
      <path
         transform="matrix(1.4400464,0,0,1.4400464,-153.3388,-38.71782)"
         d="m 284.38935,130.14711 c 0,0.32957 -0.29443,0.59674 -0.65763,0.59674 -0.3632,0 -0.65763,-0.26717 -0.65763,-0.59674 0,-0.32957 0.29443,-0.59674 0.65763,-0.59674 0.3632,0 0.65763,0.26717 0.65763,0.59674 z"
         sodipodi:ry="0.59674031"
         sodipodi:rx="0.65763217"
         sodipodi:cy="130.14711"
         sodipodi:cx="283.73172"
         id="path5709"
         style="fill:#ffffff;fill-opacity:1;stroke:#ffffff;stroke-width:0.62199998;stroke-linecap:round;stroke-miterlimit:4;stroke-opacity:1;stroke-dasharray:none"
         sodipodi:type="arc" />
      <path
         sodipodi:type="arc"
         style="fill:#000000;fill-opacity:1;stroke:#ffffff;stroke-width:0.62199998;stroke-linecap:round;stroke-miterlimit:4;stroke-opacity:1;stroke-dasharray:none"
         id="path5767"
         sodipodi:cx="284.58987"
         sodipodi:cy="132.71906"
         sodipodi:rx="5.8557587"
         sodipodi:ry="5.1324005"
         d="m 290.44563,132.71906 c 0,2.83454 -2.62171,5.1324 -5.85576,5.1324 -3.23404,0 -5.85575,-2.29786 -5.85575,-5.1324 0,-2.83455 2.62171,-5.13241 5.85575,-5.13241 3.23405,0 5.85576,2.29786 5.85576,5.13241 z"
         transform="matrix(1.0302939,0,0,1.4946383,0.51739244,-45.772934)" />
      <path
         style="fill:#ffffff;fill-opacity:1;stroke:none"
         d="m 301.57069,91.1535 c 0,0 -7.14754,8.34134 -7.28902,13.26968 -0.0884,3.0758 2.03661,6.021 4.06274,8.48386 2.15716,2.6222 6.77223,3.3707 8.36444,6.30852 1.17236,2.16316 1.51393,5.06421 0.23878,7.17866 -1.92728,3.19632 -9.4763,5.512 -10.75431,5.87347 -0.32308,-0.68295 -0.73183,-1.37453 -1.1949,-1.95781 -1.30576,-1.64487 -2.72121,-3.25532 -4.42123,-4.56824 -2.00567,-1.54902 -4.26499,-2.88296 -6.69153,-3.80689 -1.58649,-0.60405 -3.30314,-0.97915 -5.01868,-1.08766 -1.67645,-0.10615 -3.35994,0.19014 -5.01869,0.43508 -2.09815,0.30971 -4.21338,0.65042 -6.21356,1.3052 -1.5924,0.52127 -3.08562,1.28028 -4.54069,2.06658 -1.91927,1.03708 -3.92644,2.03679 -5.49666,3.48058 -1.20252,1.1056 -2.09989,2.46501 -2.98731,3.80686 -2.89373,-1.02242 -7.02667,-2.6759 -8.36444,-4.89456 -1.27497,-2.11448 -0.8139,-5.12429 0.35836,-7.28743 1.59221,-2.93785 6.08778,-3.68631 8.24497,-6.30851 2.0261,-2.46285 4.15092,-5.40809 4.06271,-8.4839 -0.14148,-4.92831 -7.28903,-13.160873 -7.28903,-13.160873 0,0 1.963,8.067278 1.19494,12.073213 -0.43764,2.28248 -1.58724,4.53578 -3.22632,6.30852 -2.29396,2.48108 -6.47617,3.0305 -8.7229,5.54715 -1.73522,1.94371 -3.01386,4.46408 -3.22629,6.96114 -0.17935,2.10776 0.49001,4.27168 1.67292,6.09097 1.77841,2.73539 5.90659,5.97757 9.08137,8.26636 -1.1194,-0.11653 -2.19158,-0.65834 -3.22628,-1.08769 -2.15151,-0.89266 -3.90701,-2.43634 -5.9746,-3.48055 -2.35244,-1.18807 -4.71967,-2.42839 -7.28903,-3.15427 -2.65799,-0.75088 -5.47063,-0.99642 -8.24497,-1.19643 -1.54854,-0.11173 -3.64873,-1.07317 -4.66019,0 -1.02333,1.0858 0.29449,2.86399 0.71698,4.24194 0.53289,1.738 1.29461,3.4326 2.27033,5.00331 0.65876,1.06043 1.47599,2.04672 2.38985,2.93674 1.67852,1.63473 3.53685,3.15706 5.61613,4.35069 1.73433,0.99557 3.62489,1.83895 5.61613,2.28412 2.51907,0.56317 5.18597,0.66978 7.76696,0.43509 1.84588,-0.16786 3.52307,-1.35686 5.37715,-1.30524 0.50359,0.0148 1.43395,0.43508 1.43395,0.43508 0,0 -0.1181,5.67369 0.23879,8.4839 0.38282,3.01609 1.18948,5.98102 2.03136,8.91893 0.80123,2.79605 1.87308,5.5223 2.86778,8.26638 0.80518,2.22117 1.76553,4.39596 2.50935,6.63481 0.77464,2.33158 1.69003,4.65391 2.03137,7.0699 0.25401,1.79799 0.38046,3.65902 0,5.4384 -0.34498,1.61245 -1.6654,2.95961 -2.03137,4.56824 -0.33979,1.49149 -0.28706,3.0527 -0.11952,4.56824 0.14335,1.29512 0.14001,2.73798 0.95591,3.80685 0.87009,1.13949 2.44247,1.69686 3.82375,2.28412 1.99792,0.84943 4.1681,1.359 6.33309,1.74031 2.19865,0.38721 4.45271,0.58944 6.69157,0.54381 2.08939,-0.0423 4.15837,-0.41618 6.21359,-0.76135 2.05221,-0.34462 4.17465,-0.55982 6.09406,-1.30523 1.61575,-0.62748 3.31811,-1.36606 4.42121,-2.61043 0.7758,-0.8751 1.09168,-2.04816 1.31445,-3.15424 0.26551,-1.31949 0.21427,-2.69718 0,-4.02443 -0.30191,-1.87255 -1.32622,-3.59395 -1.79238,-5.43836 -0.33459,-1.32439 -0.73297,-2.66549 -0.71697,-4.02443 0.0149,-1.40082 0.40913,-2.78734 0.83644,-4.13316 0.7742,-2.43837 2.13265,-4.69168 3.10682,-7.06989 0.76569,-1.8694 1.50491,-3.74948 2.15084,-5.65595 0.8514,-2.5129 1.70113,-5.03554 2.27034,-7.61374 0.53828,-2.43816 0.79014,-4.92292 1.07544,-7.3962 0.37562,-3.25499 0.83647,-9.78909 0.83647,-9.78909 0,0 1.35477,-0.29449 2.03134,-0.21762 1.4387,0.16302 2.63465,1.18614 4.06272,1.41396 2.1582,0.34424 4.43107,0.31492 6.57206,-0.10849 1.95228,-0.38649 3.72943,-1.3271 5.49663,-2.17534 2.12132,-1.01817 4.41538,-1.92175 6.09412,-3.48059 0.89419,-0.83031 1.46703,-1.89364 2.03138,-2.93673 0.57679,-1.06605 0.91787,-2.28026 1.4339,-3.37177 1.09532,-2.31678 4.91861,-4.70505 3.46526,-6.85241 -1.46302,-2.1616 -5.61156,-0.6264 -8.36444,-0.21761 -2.0521,0.30488 -3.92917,1.24463 -5.85513,1.95781 -1.53587,0.56874 -3.05694,1.17522 -4.54069,1.84904 -1.54742,0.70272 -3.13923,1.36195 -4.54068,2.28412 -1.1878,0.78156 -1.91522,2.12288 -3.22632,2.71921 -0.61711,0.28037 -1.33155,0.40674 -2.03134,0.43507 3.22907,-2.266 7.94473,-5.8842 9.91785,-8.91898 1.18287,-1.81929 1.97173,-3.98321 1.79238,-6.09097 -0.21279,-2.49705 -1.49107,-5.01743 -3.22629,-6.96113 -2.24672,-2.51667 -6.54844,-3.06608 -8.84241,-5.54716 -1.63904,-1.77274 -2.78867,-4.02602 -3.22631,-6.30851 -0.76807,-4.005947 1.19495,-12.181985 1.19495,-12.181985 z m -24.61537,34.3706 c 2.82611,0.14409 5.46722,1.35377 8.24497,1.84904 1.61966,0.28892 3.32461,0.20239 4.89915,0.65262 0.76474,0.21873 1.61343,0.43756 2.15085,0.97889 0.82834,0.83436 1.48221,2.04018 1.31444,3.15427 -0.12769,0.84773 -1.0783,1.40387 -1.67291,2.06659 -1.05245,1.17306 -2.41859,2.11422 -3.34575,3.3718 -0.61552,0.83485 -1.12738,1.75329 -1.4339,2.71921 -0.8679,2.7349 -0.49914,5.6859 -1.07544,8.48387 -0.49315,2.39418 -1.04477,4.8056 -2.03138,7.06988 -0.73598,1.68919 -1.96034,3.16724 -2.86781,4.78579 -0.84223,1.50227 -1.92598,2.93539 -2.38985,4.56823 -0.80921,2.84865 -0.88615,5.87964 -0.59746,8.81022 0.19421,1.97062 0.64411,3.96761 1.5534,5.76466 0.79998,1.58107 2.10795,2.91516 3.34578,4.24197 1.42203,1.52419 3.38808,2.61161 4.6602,4.24194 0.74274,0.95184 1.23626,2.05643 1.6729,3.15427 0.44725,1.12445 0.95594,3.48054 0.95594,3.48054 0,0 -1.06831,-1.41136 -1.67291,-2.06658 -0.77909,-0.84438 -1.51312,-1.76548 -2.50932,-2.39289 -1.42361,-0.8966 -3.09046,-1.50435 -4.77971,-1.84905 -1.98366,-0.40481 -4.0612,-0.22503 -6.09406,-0.21761 -1.67477,0.008 -3.39164,-0.14371 -5.01869,0.21761 -2.12964,0.47308 -4.23655,1.28567 -5.9746,2.50167 -1.18877,0.83168 -2.8678,3.15423 -2.8678,3.15423 0,0 0.94609,-3.0348 1.6729,-4.45946 0.39126,-0.76696 0.86859,-1.50428 1.43388,-2.17535 0.97695,-1.15981 2.35727,-2.00257 3.34577,-3.15429 0.92538,-1.07807 1.83516,-2.20898 2.38985,-3.48054 0.59962,-1.37456 0.73179,-2.88589 0.95594,-4.35069 0.48506,-3.17003 0.53036,-6.38313 0.83646,-9.57156 0.0728,-0.76195 0.35242,-1.52631 0.2388,-2.28412 -0.27073,-1.80804 -1.25704,-3.4788 -2.15089,-5.11209 -0.83774,-1.53076 -2.22537,-2.78746 -2.98731,-4.3507 -1.24248,-2.54931 -2.01496,-5.29651 -2.50931,-8.04883 -0.27034,-1.50449 0.008,-3.06061 -0.23878,-4.56824 -0.28631,-1.73927 -0.59369,-3.52844 -1.43394,-5.11209 -0.54388,-1.02515 -1.41824,-1.8858 -2.27035,-2.71919 -0.90365,-0.88381 -2.61381,-1.23434 -2.98728,-2.39289 -0.24509,-0.75982 0.26589,-1.60687 0.71694,-2.28412 0.56933,-0.85545 1.43788,-1.56711 2.38984,-2.06658 1.22299,-0.6417 2.6837,-0.81323 4.06272,-1.0877 2.16268,-0.43039 4.37908,-0.59479 6.57206,-0.87011 1.83044,-0.22986 3.65181,-0.74665 5.49666,-0.65262 z m -22.34503,19.25189 7.52804,7.3962 c 0,0 -0.54348,2.0205 -1.31445,2.71919 -0.70787,0.64156 -1.74974,1.06249 -2.74831,1.08766 -1.14641,0.026 -2.44692,-0.32196 -3.22628,-1.08766 -0.59123,-0.5809 -0.46485,-1.52626 -0.71697,-2.2841 -0.30265,-0.91087 -0.79465,-1.77894 -0.95593,-2.71921 -0.17826,-1.03885 -0.33459,-2.14798 0,-3.15427 0.24991,-0.7507 1.4339,-1.95781 1.4339,-1.95781 z m 41.22478,1.74027 c 0,0 1.18421,1.20712 1.43391,1.95782 0.33458,1.00632 0.17825,2.1154 0,3.15427 -0.16117,0.94027 -0.65298,1.80837 -0.95593,2.71919 -0.25216,0.75786 -0.12588,1.70322 -0.71699,2.28412 -0.77935,0.76581 -2.07987,1.11659 -3.22627,1.0877 -0.99857,-0.0259 -2.0404,-0.44611 -2.74831,-1.0877 -0.77097,-0.6987 -1.31441,-2.71919 -1.31441,-2.71919 l 7.528,-7.39621 z m -31.18744,49.27178 c 0.72919,0.0495 1.44223,0.4688 1.91187,0.97889 0.54215,0.58882 0.71446,1.41519 0.83648,2.17535 0.24769,1.54431 0.61515,3.3238 -0.23878,4.67705 -0.40173,0.63654 -1.22487,1.18907 -2.03134,1.19642 -0.98367,0.0117 -1.95313,-0.67541 -2.50934,-1.41396 -0.7332,-0.97361 -0.63999,-2.30228 -0.71697,-3.48059 -0.071,-1.08816 -0.473,-2.38649 0.23914,-3.26304 0.53215,-0.6551 1.61673,-0.9305 2.50932,-0.87012 z m 20.1942,0.43509 c 0.92812,-0.081 2.08125,0.18306 2.6288,0.87011 0.70213,0.88088 0.21056,2.17792 0.11952,3.26305 -0.0984,1.17696 0.004,2.49965 -0.71693,3.48054 -0.52854,0.71868 -1.43984,1.40198 -2.38984,1.41401 -0.84015,0.0117 -1.72293,-0.53825 -2.15088,-1.19648 -0.8732,-1.3431 -0.52401,-3.13804 -0.23877,-4.677 0.14259,-0.77011 0.39964,-1.58074 0.95593,-2.17535 0.45175,-0.48284 1.09883,-0.91824 1.79238,-0.97888 z"
         id="path4921"
         inkscape:connector-curvature="0" />
      <path
         sodipodi:type="arc"
         style="fill:#ffffff;fill-opacity:1;stroke:#ffffff;stroke-width:0.62199998;stroke-linecap:round;stroke-miterlimit:4;stroke-opacity:1;stroke-dasharray:none"
         id="path5769"
         sodipodi:cx="283.73172"
         sodipodi:cy="130.14711"
         sodipodi:rx="0.65763217"
         sodipodi:ry="0.59674031"
         d="m 284.38935,130.14711 c 0,0.32957 -0.29443,0.59674 -0.65763,0.59674 -0.3632,0 -0.65763,-0.26717 -0.65763,-0.59674 0,-0.32957 0.29443,-0.59674 0.65763,-0.59674 0.3632,0 0.65763,0.26717 0.65763,0.59674 z"
         transform="matrix(1.4400464,0,0,1.4400464,-113.68255,-37.68657)" />
    </g>
  </g>
</svg>
