<?xml version="1.0" encoding="UTF-8" standalone="no"?>
<!-- Created with Inkscape (http://www.inkscape.org/) -->

<svg
   xmlns:dc="http://purl.org/dc/elements/1.1/"
   xmlns:cc="http://creativecommons.org/ns#"
   xmlns:rdf="http://www.w3.org/1999/02/22-rdf-syntax-ns#"
   xmlns:svg="http://www.w3.org/2000/svg"
   xmlns="http://www.w3.org/2000/svg"
   xmlns:sodipodi="http://sodipodi.sourceforge.net/DTD/sodipodi-0.dtd"
   xmlns:inkscape="http://www.inkscape.org/namespaces/inkscape"
   width="512"
   height="512"
   id="svg2"
   version="1.1"
   inkscape:version="0.48.3.1 r9886"
   sodipodi:docname="dangerous.svg">
  <defs
     id="defs4" />
  <sodipodi:namedview
     id="base"
     pagecolor="#ffffff"
     bordercolor="#666666"
     borderopacity="1.0"
     inkscape:pageopacity="0.0"
     inkscape:pageshadow="2"
     inkscape:zoom="1"
     inkscape:cx="257.11938"
     inkscape:cy="264.63923"
     inkscape:document-units="px"
     inkscape:current-layer="layer3"
     showgrid="false"
     inkscape:window-width="1364"
     inkscape:window-height="747"
     inkscape:window-x="0"
     inkscape:window-y="0"
     inkscape:window-maximized="0" />
  <metadata
     id="metadata7">
    <rdf:RDF>
      <cc:Work
         rdf:about="">
        <dc:format>image/svg+xml</dc:format>
        <dc:type
           rdf:resource="http://purl.org/dc/dcmitype/StillImage" />
        <dc:title></dc:title>
      </cc:Work>
    </rdf:RDF>
  </metadata>
  <g
     inkscape:label="background"
     inkscape:groupmode="layer"
     id="layer1"
     transform="translate(0,-540.36218)"
     style="opacity:0.93999999"
     sodipodi:insensitive="true">
    <rect
       style="fill:#0d3372;fill-opacity:1;stroke:none"
       id="rect2985"
       width="512"
       height="512"
       x="0"
       y="540.36218" />
    <rect
       style="fill:#d8433f;fill-opacity:1;stroke:none"
       id="rect3774"
       width="185.714"
       height="512"
       x="163.14285"
       y="540.36218" />
  </g>
  <g
     inkscape:groupmode="layer"
     id="layer2"
     inkscape:label="head"
     sodipodi:insensitive="true">
    <path
       style="fill:#c22b27;fill-opacity:1;stroke:none"
       d="m 339.21288,199.44427 -154.5,8.8125 -18.3125,7.875 -8.59375,19.5625 -25.125,60.3125 -16.25,44.96875 c 0,0 18.37767,7.38083 28.03125,9.375 6.67154,1.37816 11.85479,2.01358 18.67411,2.44643 2.30348,-18.43696 23.08725,-38.86041 33.95089,-54.57143 9.42818,-13.63508 21.33751,-26.40837 35.5,-32.625 14.95272,-6.56351 32.14448,-5.83921 47.96875,-3.0625 12.49948,2.1933 25.98914,5.7131 35.5,15.28125 11.79373,11.86477 26.24552,29.29785 32.9375,46.51339 12.28881,-3.15453 25.67397,-7.27796 38.0625,-10.01339 3.02174,-0.66722 9.15625,-1.65625 9.15625,-1.65625 l -1.71875,-16.3125 -15.96875,-30.5 -24.59375,-46.125 -8.25,-15.4375 z"
       id="path3791"
       inkscape:connector-curvature="0"
       sodipodi:nodetypes="ccccccscsssscscccccc" />
    <path
       style="fill:#dc5653;fill-opacity:1;stroke:none"
       d="m 339.75582,207.89251 c -13.33709,51.1436 -44.41411,97.38147 -84.69797,95.82354 -33.72624,-1.30431 -77.90423,-43.80749 -84.69797,-95.82354 -6.85383,-52.4762 37.92057,-95.82355 84.69797,-95.82355 46.7774,0 98.05218,44.61426 84.69797,95.82355 z"
       id="path3785"
       inkscape:connector-curvature="0"
       sodipodi:nodetypes="sssss" />
    <path
       style="fill:#e66950;fill-opacity:1;stroke:none"
       d="m 252.18674,111.35117 c 0,0 -15.31877,2.2044 -22.61006,4.66557 -8.61079,2.90657 -17.26243,6.40843 -24.57865,11.79981 -8.85206,6.52316 -16.61419,14.85254 -22.44336,24.17624 -7.66767,12.26435 -12.18271,26.42779 -15.66053,40.46746 -2.80918,11.34041 -4.07094,34.8123 -4.07094,34.8123 l -1.43556,49.88566 -2.15334,47.73234 c 0,0 -17.79161,-0.0214 -25.84006,3.23 -6.65525,2.68855 -17.2267,12.92003 -17.2267,12.92003 0,0 4.75042,-27.13265 8.97225,-40.19565 7.08663,-21.92717 14.7121,-44.20562 27.27561,-63.52347 7.33815,-11.28324 17.14308,-20.9584 27.45506,-29.60841 9.2159,-7.73057 19.57379,-14.16682 30.32618,-19.55948 6.73349,-3.37705 14.2382,-4.95751 21.17449,-7.89557 5.1243,-2.17055 10.97032,-3.41819 15.07337,-7.1778 5.21884,-4.78201 8.61254,-11.56071 10.76669,-18.30338 1.68102,-5.26174 1.33751,-10.98605 1.43556,-16.50892 0.0829,-4.67096 0.36877,-9.45312 -0.71778,-13.9967 -1.09612,-4.58363 -5.74223,-12.92003 -5.74223,-12.92003 z"
       id="path3787"
       inkscape:connector-curvature="0"
       sodipodi:nodetypes="caaaacccacaaaaaaaaac" />
    <path
       style="fill:#e66950;fill-opacity:1;stroke:none"
       d="m 251.12438,111.51973 c 0,0 4.45434,6.45188 6.25164,9.9239 2.3743,4.58668 5.0354,9.22644 5.9363,14.31204 0.98163,5.54141 -0.46741,11.24569 -0.71778,16.86781 -0.22911,5.14456 -2.00882,10.44708 -0.71778,15.43226 1.19855,4.62803 3.97869,9.00915 7.53668,12.20226 4.34077,3.8956 10.26125,5.68243 15.79114,7.53668 5.09397,1.70806 10.57878,1.9273 15.79115,3.23001 6.53657,1.63365 13.00182,3.57111 19.38005,5.74223 8.49667,2.89223 25.12228,9.69002 25.12228,9.69002 0,0 14.51776,10.78826 20.8156,17.22671 7.14625,7.30582 13.8023,15.25884 19.02115,24.04561 3.58565,6.03701 6.16837,12.67552 8.25447,19.38004 2.13991,6.87745 3.85262,13.98615 4.30668,21.1745 0.50667,8.0215 -1.79445,24.0456 -1.79445,24.0456 0,0 -2.79419,-12.09159 -6.46001,-16.86781 -3.59865,-4.68868 -9.20818,-7.50298 -14.3556,-10.40781 -5.88254,-3.31965 -18.66226,-7.89557 -18.66226,-7.89557 0,0 -3.62977,-34.27187 -6.10112,-51.32123 -1.76872,-12.20202 -3.99295,-24.33546 -6.24232,-36.45809 -1.24909,-6.73178 -1.52368,-13.76887 -4.0274,-20.14136 -3.96958,-10.10342 -9.92599,-19.55778 -17.06001,-27.73963 -5.65914,-6.49032 -12.66703,-11.81993 -19.95663,-16.4038 -7.28471,-4.58079 -15.25619,-8.13581 -23.41491,-10.87181 -5.91756,-1.98444 -12.06873,-3.65706 -18.30338,-3.94779 -3.48549,-0.16253 -10.39349,1.24523 -10.39349,1.24523 z"
       id="path3789"
       inkscape:connector-curvature="0"
       sodipodi:nodetypes="caaaaaaaacaaaacaacaaaaaaac" />
    <path
       style="fill:none;stroke:#c22b27;stroke-width:2;stroke-linecap:butt;stroke-linejoin:miter;stroke-miterlimit:4;stroke-opacity:1;stroke-dasharray:none"
       d="m 236.11631,221.48678 c 0,0 -2.21504,-0.61151 -3.31972,-0.44861 -2.7011,0.39829 -4.80765,2.72541 -7.45506,3.39312 -3.00599,0.75814 -6.2304,1.18273 -9.2795,0.62261 -2.55647,-0.46962 -4.99398,-1.71155 -7.08675,-3.2531 -0.63093,-0.46474 -1.57015,-1.74959 -1.57015,-1.74959"
       id="path3793"
       inkscape:connector-curvature="0"
       sodipodi:nodetypes="caaaac" />
    <path
       sodipodi:nodetypes="caaaac"
       inkscape:connector-curvature="0"
       id="path3795"
       d="m 275.9367,221.41244 c 0,0 2.21503,-0.6115 3.31973,-0.44861 2.70109,0.39829 4.80765,2.72542 7.45504,3.39312 3.00599,0.75816 6.23041,1.18274 9.2795,0.62262 2.55648,-0.46963 4.99398,-1.71155 7.08676,-3.2531 0.63092,-0.46474 1.57014,-1.74959 1.57014,-1.74959"
       style="fill:none;stroke:#c22b27;stroke-width:2;stroke-linecap:butt;stroke-linejoin:miter;stroke-miterlimit:4;stroke-opacity:1;stroke-dasharray:none" />
    <path
       style="fill:#e66950;fill-opacity:1;stroke:none"
       d="m 236.12642,264.59707 5.92168,1.70473 4.71043,2.33278 1.97389,0.98695 3.85807,0.89722 4.12723,-0.26917 3.5889,-1.16639 4.35153,-1.74958 4.48613,-2.01876 3.85806,-1.16639 -8.34418,-2.15334 -9.51058,0.0897 -7.35724,-0.0897 z"
       id="path3800"
       inkscape:connector-curvature="0"
       sodipodi:nodetypes="cccccccccccccc" />
    <path
       style="fill:#c22b27;fill-opacity:1;stroke:none"
       d="m 236.07418,264.45193 14.59197,-4.88514 c 0,0 0.91294,0.81886 1.4592,1.07854 0.76898,0.36555 1.6229,0.62417 2.47428,0.63444 0.90579,0.0109 1.84859,-0.18513 2.64791,-0.61135 0.54449,-0.29033 1.3509,-1.26567 1.3509,-1.26567 l 14.52665,4.28786 c 0,0 -6.25204,-0.63433 -9.38961,-0.76132 -0.92975,-0.0377 -1.86842,-0.11719 -2.79151,0 -0.67167,0.0853 -1.31397,0.32785 -1.96674,0.50755 -0.87103,0.23979 -1.71132,0.60529 -2.60118,0.76132 -1.33572,0.2342 -2.71315,0.40873 -4.06037,0.25377 -1.09672,-0.12614 -2.07992,-0.79134 -3.17218,-0.95164 -1.63203,-0.23953 -3.30184,-0.0962 -4.94857,0 -2.72081,0.15887 -8.12075,0.95164 -8.12075,0.95164 z"
       id="path3798"
       inkscape:connector-curvature="0"
       sodipodi:nodetypes="ccaaaccaaaaaaac" />
  </g>
  <g
     inkscape:groupmode="layer"
     id="layer4"
     inkscape:label="string"
     sodipodi:insensitive="true">
    <g
       id="g3970"
       transform="translate(-4.0406102,-10.101525)">
      <path
         sodipodi:nodetypes="caaaaaaac"
         inkscape:connector-curvature="0"
         id="path3968"
         d="m 111.07142,438.78572 c 0,0 5.87016,3.75726 6.07143,6.78571 0.23867,3.59118 -3.28241,6.65373 -6.07143,8.92857 -4.79713,3.91274 -11.093296,5.8295 -17.142849,7.14286 -7.100403,1.5415 -14.578342,-0.20535 -21.785714,0.71429 -10.772129,1.37449 -23.388383,0.25715 -31.785714,7.14285 -3.626599,2.97376 -6.093238,8.18255 -5.714286,12.85715 0.333496,4.11387 3.336706,8.0901 6.785714,10.35714 4.644835,3.05306 16.428572,2.85714 16.428572,2.85714"
         style="fill:none;stroke:#4985ea;stroke-width:3;stroke-linecap:butt;stroke-linejoin:miter;stroke-miterlimit:4;stroke-opacity:1;stroke-dasharray:none" />
      <path
         transform="translate(-17.172593,-6.0609153)"
         d="m 137.88582,422.6015 a 41.921329,41.921329 0 1 1 -83.842657,0 41.921329,41.921329 0 1 1 83.842657,0 z"
         sodipodi:ry="41.921329"
         sodipodi:rx="41.921329"
         sodipodi:cy="422.6015"
         sodipodi:cx="95.964493"
         id="path3857"
         style="fill:#4985ea;fill-opacity:1;stroke:none"
         sodipodi:type="arc" />
      <g
         style="stroke:#0d3372;stroke-opacity:1"
         id="g3916">
        <path
           sodipodi:nodetypes="cccc"
           style="fill:none;stroke:#0d3372;stroke-width:1px;stroke-linecap:butt;stroke-linejoin:miter;stroke-opacity:1"
           d="m 70.45814,405.93398 2.77792,-3.40926 6.818529,-8.46003 16.004605,-16.03617"
           id="path3892"
           inkscape:connector-curvature="0" />
        <path
           sodipodi:nodetypes="csccscc"
           style="fill:none;stroke:#0d3372;stroke-width:1px;stroke-linecap:butt;stroke-linejoin:miter;stroke-opacity:1"
           d="m 87.378195,423.48538 c 0.505077,-0.25254 3.788072,-4.54568 4.293149,-4.92449 0.505076,-0.37881 5.808377,-7.70241 5.808377,-7.70241 l 4.924489,-8.96511 c 0,0 1.76777,-4.67195 2.14658,-5.17703 0.37881,-0.50508 1.51523,-4.79822 1.51523,-4.79822 l 0.53664,-7.38674"
           id="path3902"
           inkscape:connector-curvature="0" />
        <path
           sodipodi:nodetypes="caaaaaccaaaaaaccaaaaaaccaaaaccaaaaaaccaaaaaccaaaaaccaaaccaaaccaaccaaaaaaaaccaaaaaaaaccaaaaaaccaaaaaaccaaaaaaaaaccaaaaaaccaaaaaccaaaaaaaccaaaaaaaaaaccaaaaaaaac"
           inkscape:connector-curvature="0"
           d="m 100.76272,439.01648 c 0,0 3.32081,-1.70088 4.92449,-2.65165 1.72725,-1.02403 3.55542,-1.94285 5.05076,-3.283 1.78192,-1.59699 3.21584,-3.56659 4.54569,-5.55584 1.4338,-2.14474 2.78304,-4.39294 3.6618,-6.81853 0.57077,-1.57547 0.72648,-3.273 1.01015,-4.92449 0.42727,-2.48746 1.04079,-7.49978 1.04079,-7.49978 m -1.57519,-5.825 c 0,0 0.12227,6.18565 -0.60202,9.1579 -0.34806,1.42833 -1.18172,2.69234 -1.76776,4.04061 -0.80413,1.85003 -1.44054,3.78091 -2.39912,5.55584 -1.05399,1.95158 -2.27339,3.82613 -3.6618,5.55584 -1.2111,1.50881 -2.64074,2.83135 -4.04061,4.16688 -1.38086,1.31739 -2.75296,2.66108 -4.29315,3.78807 -1.38644,1.01448 -4.419415,2.65165 -4.419415,2.65165 m -3.282996,-0.50508 c 0,0 2.806886,-1.89583 4.16688,-2.90418 1.420431,-1.05316 2.924511,-2.02471 4.166881,-3.283 1.60289,-1.62343 2.83542,-3.577 4.16688,-5.42957 1.80542,-2.51203 3.7168,-4.97522 5.17703,-7.70241 1.35406,-2.5289 2.45062,-5.20978 3.28299,-7.95495 0.4982,-1.64306 0.81307,-3.34519 1.01016,-5.05077 0.25863,-2.23811 0.22097,-6.75539 0.22097,-6.75539 m -1.98874,-3.72494 c -0.12627,0.63135 -1.39372,10.46857 -3.15673,15.40483 -1.24748,3.49282 -3.0942,6.78013 -5.17703,9.84898 -1.52543,2.24757 -3.55384,4.10924 -5.3033,6.18719 -1.829136,2.17258 -3.296072,4.69142 -5.429569,6.56599 -1.008827,0.88639 -3.409265,2.14657 -3.409265,2.14657 m -1.262691,-4.29314 c 0,0 2.126782,-0.74233 3.030458,-1.38896 0.895865,-0.64104 1.517751,-1.59703 2.272843,-2.39912 1.224704,-1.30093 2.508623,-2.54961 3.661804,-3.91434 2.15158,-2.54629 4.51065,-5.00375 6.06091,-7.95495 1.13273,-2.15635 1.52207,-4.62764 2.27285,-6.9448 0.7221,-2.22863 1.74016,-4.38508 2.14657,-6.69226 0.66677,-3.78523 0.44195,-11.52206 0.44195,-11.52206 m -2.55695,-3.12515 c 0,0 0.53668,8.4143 -0.28411,12.50064 -0.45407,2.26058 -1.6037,4.32621 -2.52538,6.43972 -1.00836,2.31227 -1.97688,4.66042 -3.283,6.81853 -1.16811,1.93007 -2.56564,3.72249 -4.040608,5.42957 -1.284232,1.48633 -2.837856,2.72046 -4.166879,4.16688 -1.192324,1.29764 -3.409265,4.04061 -3.409265,4.04061 m -5.682108,-5.68211 c 0.757615,-0.63134 2.819794,-4.18192 4.166879,-6.31345 1.129897,-1.78787 2.029545,-3.72604 3.282996,-5.42957 1.166277,-1.58505 2.827536,-2.77886 3.914341,-4.41942 1.13329,-1.71073 1.72152,-3.72668 2.651651,-5.55584 0.802403,-1.57797 1.890093,-3.0196 2.525383,-4.67195 1.35464,-3.52332 2.67594,-11.00359 2.67594,-11.00359 m -23.384069,34.6159 c 0,0 3.189066,-4.88882 4.798225,-7.3236 1.757147,-2.6587 3.513977,-5.31781 5.3033,-7.95496 1.20615,-1.77766 2.553332,-3.46315 3.661803,-5.3033 3.095894,-5.13943 8.312321,-15.96528 8.312321,-15.96528 m -26.526634,32.03302 c 0.631345,-0.75761 3.639958,-6.33167 5.966214,-9.12294 1.524801,-1.82961 3.742396,-3.02336 5.177032,-4.92449 1.202069,-1.59294 1.698724,-3.62468 2.777919,-5.3033 3.106005,-4.83119 10.567439,-13.6095 10.567439,-13.6095 m -28.055705,29.26687 c 0,0 3.259907,-4.14339 4.924494,-6.18719 1.556964,-1.91167 3.12953,-3.81107 4.73509,-5.68211 5.102193,-5.94584 15.562662,-17.61453 15.562662,-17.61453 m 4.613689,73.47141 c 0,0 -7.350976,-1.72206 -10.958709,-2.82387 -3.373922,-1.03041 -6.759672,-2.08464 -9.975257,-3.53554 -3.949932,-1.78224 -7.672731,-4.04381 -11.364216,-6.31345 -2.685049,-1.65085 -5.293309,-3.43068 -7.828682,-5.3033 -2.432231,-1.79644 -4.803169,-3.68222 -7.071068,-5.68211 -2.634426,-2.3231 -5.374497,-4.58686 -7.576144,-7.3236 -1.859744,-2.31174 -3.246472,-4.97407 -4.671955,-7.57615 -1.302406,-2.37741 -2.501476,-4.81779 -3.535534,-7.3236 -0.670808,-1.62555 -1.724439,-4.98578 -1.724439,-4.98578 m 0.385153,-2.56499 c 0,0 3.866524,5.6763 5.506165,8.68719 1.152843,2.11698 1.817359,4.48295 3.030458,6.56599 1.19915,2.05909 2.624823,3.99183 4.166879,5.80838 1.694937,1.99665 3.586375,3.82939 5.555839,5.55584 2.392909,2.09764 5.008627,3.92848 7.576144,5.80837 3.438689,2.51775 6.90689,5.00108 10.480333,7.32361 2.596452,1.68754 5.227189,3.33239 7.954951,4.79822 3.283646,1.76455 6.638643,3.41822 10.101525,4.79823 3.200943,1.27562 9.828637,3.20268 9.828637,3.20268 m 0.77162,-0.79591 c -0.50508,0 -6.017186,-1.89591 -8.83249,-3.29066 -4.237701,-2.09943 -8.124056,-4.86005 -11.995561,-7.57614 -3.707979,-2.60137 -7.19437,-5.50617 -10.732871,-8.33376 -3.831177,-3.06146 -7.819894,-5.95448 -11.364216,-9.34391 -2.455487,-2.34818 -4.619965,-4.98584 -6.81853,-7.57614 -2.267171,-2.67113 -4.497716,-5.37955 -6.565991,-8.20749 -2.452969,-3.35393 -6.91679,-10.3707 -6.91679,-10.3707 m 9.442171,7.84532 c 0,0 4.228265,5.19061 6.439722,7.70241 1.554806,1.76597 3.125731,3.52209 4.798225,5.17703 2.181588,2.15869 4.565032,4.10367 6.81853,6.18718 2.929593,2.70861 5.737335,5.54909 8.712565,8.20749 2.961791,2.64639 5.80402,5.47332 9.091373,7.70242 3.709019,2.51503 7.782657,4.47454 11.869293,6.31345 3.17446,1.42845 9.78531,3.6478 9.78531,3.6478 M 41.710807,394.31328 c 0,0 5.136427,6.70711 8.291744,9.47413 2.053775,1.80104 4.706056,2.81387 6.81853,4.54568 2.163518,1.77366 3.850062,4.06886 5.934646,5.93465 2.409793,2.15687 5.155909,3.91577 7.576144,6.06092 2.294177,2.03342 4.446122,4.22518 6.565992,6.43972 2.699864,2.82043 4.849399,6.18907 7.828682,8.71256 1.675025,1.41876 3.60234,2.53432 5.555839,3.53554 2.218811,1.1372 4.629866,1.85195 6.944799,2.77792 2.735829,1.09433 5.446647,2.25338 8.207487,3.28299 1.38275,0.51568 4.18352,1.44893 4.18352,1.44893 M 44.437082,390.55651 c 0,0 5.381984,6.30076 8.343389,9.19029 4.976506,4.85572 10.760333,8.82977 15.783633,13.63706 3.721411,3.56139 6.982633,7.57745 10.606602,11.23794 2.219937,2.24231 4.393895,4.54679 6.81853,6.566 1.831015,1.52485 3.730594,3.00043 5.808377,4.16688 2.351773,1.32027 4.971543,2.09285 7.449875,3.15672 4.647882,1.99519 13.915432,6.05086 13.915432,6.05086 M 46.374446,387.65998 c 0,0 7.163206,4.61388 10.572904,7.16232 4.670648,3.49088 9.234231,7.14781 13.51079,11.11168 3.078404,2.85332 5.860658,6.01167 8.712566,9.09138 2.916416,3.14937 6.105,6.09399 8.586297,9.59644 1.666106,2.35178 3.38365,4.80247 4.166879,7.57615 0.240469,0.85158 0.126269,2.65165 0.126269,2.65165 M 36.996837,423.48538 c 0,0 2.874265,3.68079 4.419417,5.42957 1.852808,2.09698 3.756194,4.15862 5.808378,6.06092 2.478086,2.2971 5.04471,4.52476 7.828682,6.43972 1.754924,1.20713 3.700167,2.11107 5.555839,3.15673 1.4282,0.80478 2.823862,1.67204 4.293148,2.39911 2.179499,1.07851 4.385511,2.13457 6.692261,2.90419 6.53013,2.17869 13.435265,3.02481 20.086206,4.80085 1.865712,0.49821 5.555839,1.6415 5.555839,1.6415 m -61.79461,-43.66503 c 0,0 2.089939,5.05726 3.448876,7.42318 1.174706,2.04517 2.573004,3.96209 4.04061,5.80838 1.483412,1.86617 3.034512,3.69942 4.798225,5.3033 2.136174,1.94258 4.625079,3.45779 6.944799,5.17703 2.39419,1.77443 4.655733,3.74735 7.197337,5.3033 2.568585,1.57247 5.382914,2.70291 8.08122,4.04061 2.479125,1.22904 4.942213,2.49209 7.449875,3.6618 1.793175,0.83644 3.558006,1.75696 5.42957,2.39911 1.641471,0.5632 3.343512,0.95138 5.050763,1.2627 1.792493,0.32686 3.624152,0.38571 5.42957,0.63134 2.198331,0.29909 6.576279,1.02547 6.576279,1.02547 M 37.024847,407.91468 c 0,0 2.311518,5.81166 3.886331,8.49964 1.370314,2.33893 3.085741,4.46462 4.798225,6.56599 2.691832,3.30312 5.452435,6.58306 8.586296,9.47018 3.355791,3.09157 6.991124,5.91351 10.85914,8.33376 2.712665,1.69734 5.743271,2.82457 8.586297,4.29314 3.178601,1.64192 6.104407,3.83793 9.47018,5.05077 1.778356,0.64082 3.701005,0.77201 5.555839,1.13642 2.89985,0.56971 5.785813,1.23184 8.712566,1.6415 1.096414,0.15347 3.307289,0.30484 3.307289,0.30484"
           style="fill:none;stroke:#0d3372;stroke-width:1px;stroke-linecap:butt;stroke-linejoin:miter;stroke-opacity:1"
           id="path3914" />
        <path
           sodipodi:nodetypes="caaaaaaaccaaaaaaaccaaccaaaaccaaaccaaaccaaaaaccaaaaccaaaaccaaaac"
           inkscape:connector-curvature="0"
           d="m 43.752232,440.27917 c 0,0 3.62237,3.50232 5.555839,5.1139 1.477544,1.23156 3.029651,2.37418 4.608821,3.4724 1.82603,1.2699 3.66307,2.53967 5.618974,3.59866 1.623506,0.87902 3.28698,1.7274 5.050763,2.27285 2.512208,0.7769 5.170501,0.9641 7.765547,1.38896 1.553745,0.25438 3.107989,0.51327 4.671956,0.69448 1.510376,0.175 3.044688,0.13617 4.545686,0.3788 1.325222,0.21421 3.914341,0.94702 3.914341,0.94702 m 5.934647,-1.51523 c -0.505077,-0.0631 -3.599682,-0.93982 -5.42957,-1.26269 -3.611694,-0.63726 -7.312722,-0.67655 -10.922275,-1.32582 -4.089328,-0.73557 -8.309279,-1.25248 -12.12183,-2.90419 -2.913592,-1.26225 -5.327505,-3.45725 -7.954952,-5.24017 -1.763297,-1.19653 -3.615931,-2.28239 -5.240166,-3.6618 -1.769575,-1.50284 -3.340778,-3.23328 -4.861359,-4.98763 -1.356411,-1.56494 -2.499559,-3.30318 -3.788072,-4.92449 -1.135005,-1.42815 -3.4724,-4.23002 -3.4724,-4.23002 m 70.647548,13.95274 c 0,0 2.18988,-1.06125 3.21986,-1.70464 1.30308,-0.81398 2.61959,-1.64764 3.72493,-2.71478 1.69307,-1.63456 4.35629,-5.55584 4.35629,-5.55584 m -15.15229,8.46003 c 0.44194,-0.12627 3.8168,-1.4536 5.4927,-2.58852 1.04798,-0.70969 1.89352,-1.68311 2.77792,-2.58851 1.4166,-1.45025 2.88874,-2.87741 4.04061,-4.54569 0.87713,-1.27036 1.46162,-2.72028 2.14658,-4.10375 0.63913,-1.2909 1.8309,-3.91434 1.8309,-3.91434 M 49.560609,389.1402 c 0,0 2.65612,-2.86121 4.103745,-4.16688 1.300836,-1.17328 2.709963,-2.22181 4.103745,-3.283 1.798558,-1.36938 3.633079,-2.69225 5.492704,-3.97747 1.824646,-1.26105 5.555839,-3.66181 5.555839,-3.66181 m -16.16244,16.92006 c 0,0 3.469044,-4.01941 5.366435,-5.87151 1.6972,-1.65669 3.459952,-3.26114 5.366435,-4.67196 2.3329,-1.72638 4.772152,-3.34917 7.386741,-4.60882 2.614451,-1.25958 8.207489,-2.90419 8.207489,-2.90419 m -23.233508,20.26619 c 0,0 3.438382,-4.37651 5.366435,-6.37659 1.892261,-1.96295 3.842757,-3.90727 6.060915,-5.49271 1.48668,-1.06261 3.16093,-1.8401 4.798225,-2.65165 1.401419,-0.69464 2.842497,-1.30913 4.293148,-1.89403 1.475776,-0.59503 3.0183,-1.01865 4.482552,-1.6415 0.840121,-0.35736 2.462247,-1.19956 2.462247,-1.19956 m -24.054257,22.28649 c 0,0 4.440029,-5.27502 6.881664,-7.70241 1.871512,-1.8606 3.844711,-3.62879 5.934646,-5.24017 2.006117,-1.54676 4.088489,-3.01902 6.313453,-4.23001 1.448988,-0.78865 3.015301,-1.34117 4.545687,-1.95717 1.834822,-0.73854 5.303301,-2.08344 5.555839,-2.08344 m -24.811872,24.62247 c 0,0 3.923307,-4.73772 6.060915,-6.9448 2.020108,-2.08576 4.149232,-4.07183 6.376588,-5.93465 2.340766,-1.95767 4.907943,-3.62823 7.323606,-5.4927 1.44662,-1.11654 2.762414,-2.41116 4.293148,-3.40927 1.135495,-0.74039 3.598669,-1.89403 3.598669,-1.89403 m -23.67545,27.02158 c 0,0 4.61726,-5.4359 7.007933,-8.08122 2.325832,-2.57357 4.674654,-5.13005 7.134202,-7.57615 2.079905,-2.06853 4.195075,-4.10929 6.439723,-5.99778 1.17236,-0.98634 2.42239,-1.87728 3.661803,-2.77792 0.953987,-0.69323 2.904188,-2.0203 2.904188,-2.0203"
           style="fill:none;stroke:#0d3372;stroke-width:1px;stroke-linecap:butt;stroke-linejoin:miter;stroke-opacity:1"
           id="path3965" />
      </g>
    </g>
  </g>
  <g
     inkscape:groupmode="layer"
     id="layer5"
     inkscape:label="potato"
     sodipodi:insensitive="true">
    <g
       id="g4097"
       transform="matrix(0.56320696,0,0,0.56320696,59.284849,270.2117)">
      <path
         inkscape:connector-curvature="0"
         id="path4009"
         d="m 646.875,169.5 5.375,-1.875 9.625,-3.875 7.5,-1.875 10.5,0.375 13.125,1.75 16.375,6.125 10.5,5.875 16.125,14.625 9.25,8.5 8.875,14.875 6.625,14.75 4.875,12.75 -0.375,13.625 -1.875,12.75 -4.125,11.875 -8.5,11.75 -12.375,10 -13.625,9.25 -19.375,7.75 -21.25,3.875 c 0,0 -20.25,-0.125 -20.875,-0.125 -0.625,0 -23.125,-2.125 -23.125,-2.125 L 612.25,308.5 592.5,297.625 l -9.125,-8.25 -6,-4.375 -6.25,-3.375 -8.375,-6.25 -3.625,-7 -0.875,-11.875 1.375,-9.75 4.125,-7.375 0.5,-4.625 -1,-4.875 -0.5,-6 0.875,-6.875 4.5,-11 4.125,-9.375 6.875,-8.25 7.75,-5.875 7.25,-5.375 10.75,-5.5 9.125,-2.75 8.25,-0.625 12.25,0.75 c 0,0 5.25,0.75 5.75,0.75 0.5,0 6.625,-0.25 6.625,-0.25 z"
         style="fill:#4985ea;fill-opacity:1;stroke:none" />
      <path
         inkscape:connector-curvature="0"
         id="path4095"
         d="m 559,254 6,17 c 0,0 6.75,6.75 9.75,7.75 3,1 12.25,3.5 13.5,3.25 1.25,-0.25 6.25,-4.25 7.75,-6.25 1.5,-2 4,-9.25 4.75,-10.75 0.75,-1.5 4.75,-7.25 6.5,-7.25 1.75,0 5.5,1 8.75,1.75 3.25,0.75 7,2.25 9.5,2.75 2.5,0.5 8.75,-0.5 8.75,-0.5 0,0 2.75,-5.75 4.5,-6.25 1.75,-0.5 5.75,-1 7.25,-3.25 1.5,-2.25 2.75,-4.5 3.75,-8 1,-3.5 2.75,-7.25 1.75,-10.5 -1,-3.25 -0.25,-1.75 -1.5,-6 -1.25,-4.25 -2.25,-6.25 -3.75,-8 -1.5,-1.75 -0.75,-0.75 -2.75,-4 -2,-3.25 -2.5,-1.25 -2.75,-5.25 -0.25,-4 -2.5,-3.75 0.25,-5.5 2.75,-1.75 1.5,-2.25 5,-2.25 3.5,0 12.75,2 14.5,0.25 1.75,-1.75 3.5,-2.25 4,-5.25 0.5,-3 0.25,-1.5 0.5,-4.75 0.25,-3.25 -1.25,-4.75 1.5,-7.25 2.75,-2.5 -0.5,-3.25 5.5,-3.25 6,0 3,-3.5 7.75,0 4.75,3.5 6.75,2.75 8,6.5 1.25,3.75 1.5,4.25 2.75,5.75 1.25,1.5 7.5,0.75 9.5,1.5 2,0.75 4.75,1.5 5.75,2.75 1,1.25 12.5,1.5 15.75,0.75 3.25,-0.75 7.75,-3 9.75,-2 2,1 2.75,1.75 5.75,2.5 3,0.75 7.5,0.5 7.5,0.5 0,0 1,-1.5 0.25,-2.5 -0.75,-1 -7.25,-7 -7.25,-7 l -9.25,-7.5 c 0,0 -8.25,-8.5 -9.25,-9 -1,-0.5 -11,-4.75 -12.25,-5.75 -1.25,-1 -16,-5.75 -17.25,-6 -1.25,-0.25 -7.5,-0.25 -9,-0.75 -1.5,-0.5 -12.75,-1.75 -14.25,-1.5 -1.5,0.25 -9,3 -11,3.75 -2,0.75 -5.25,3.25 -9,3.25 -3.75,0 -6.75,0 -8.5,0 -1.75,0 -14.5,-0.75 -15.75,-0.75 -1.25,0 -8.25,0.75 -12.75,2 -4.5,1.25 -5.25,1.5 -9.25,3.75 -4,2.25 -7.75,4.25 -10.75,6.25 -3,2 -8.75,7 -10.5,8.5 C 577,189 574,192 572,195 c -2,3 -5.25,6.25 -6.75,10 -1.5,3.75 -3.75,9.25 -4.25,13.75 -0.5,4.5 -1,11 -0.5,12.75 0.5,1.75 1.25,5.25 1,7 -0.25,1.75 -1.25,3.5 -1.75,6.25 C 559.25,247.5 559,254 559,254 z"
         style="opacity:0.2;fill:#ffffff;fill-opacity:1;stroke:none" />
      <path
         inkscape:connector-curvature="0"
         id="path4011"
         d="m 632.37443,225.35659 -1.32582,2.29809 c 0,0 -1.67938,3.8449 -1.67938,4.19845 0,0.35355 0.35355,1.45841 0.53033,1.72357 0.17678,0.26517 1.37002,1.76777 1.37002,1.76777 l 0.61872,1.19324 c 0,0 1.01646,-3.09359 1.10485,-3.31456 0.0884,-0.22097 0.70711,-3.66812 0.70711,-3.93328 0,-0.26517 -0.13258,-1.67938 -0.22097,-1.94454 -0.0884,-0.26517 -1.10486,-1.98874 -1.10486,-1.98874 z"
         style="fill:#0d3372;fill-opacity:0.94117647;stroke:none" />
      <path
         inkscape:connector-curvature="0"
         id="path4013"
         d="m 680.10414,195.61391 c -0.57452,-0.13258 -3.84489,-1.5026 -3.84489,-1.5026 0,0 -1.5468,0.39774 -1.72357,1.23743 -0.17678,0.83969 -0.53033,1.37002 0.26516,1.90035 0.7955,0.53033 2.03293,1.5468 2.51907,1.67938 0.48614,0.13258 1.5468,-0.0442 1.81196,-0.44194 0.26517,-0.39775 0.7513,-0.53033 0.88388,-1.01647 0.13259,-0.48613 0.0884,-1.85615 0.0884,-1.85615 z"
         style="fill:#0d3372;fill-opacity:0.94117647;stroke:none" />
      <path
         inkscape:connector-curvature="0"
         id="path4015"
         d="m 676.78958,202.37562 c -0.22097,0.0442 -1.32583,-0.57453 -1.81196,-0.35356 -0.48614,0.22097 -0.97227,0.75131 -1.01647,1.37002 -0.0442,0.61872 -0.35355,1.94455 0.0884,2.03294 0.44194,0.0884 0.7955,-0.13259 1.28163,-0.39775 0.48614,-0.26517 1.10486,-0.48614 1.10486,-1.01647 0,-0.53033 0.35355,-1.63518 0.35355,-1.63518 z"
         style="fill:#0d3372;fill-opacity:0.94117647;stroke:none" />
      <path
         inkscape:connector-curvature="0"
         id="path4017"
         d="m 739.01498,215.19193 c -0.13259,-0.17678 -1.45841,-3.09359 -2.12132,-3.31457 -0.66292,-0.22097 -0.7513,-1.41421 -0.7513,-1.41421 0,0 2.78423,-1.67938 2.60745,-1.94454 -0.17678,-0.26517 -1.19324,-1.5026 -1.76777,-1.67938 -0.57452,-0.17678 -1.94454,-1.10486 -2.2539,-1.10486 -0.30936,0 -1.28163,-0.35355 -1.59099,0.44195 -0.30936,0.79549 -0.70711,1.67938 -0.83969,2.69584 -0.13258,1.01647 -0.39775,1.85616 -0.17677,3.09359 0.22097,1.23744 0.79549,3.22618 0.97227,4.50781 0.17677,1.28163 0.13258,2.69584 0.92807,3.0052 0.7955,0.30936 3.22618,1.32583 3.66812,1.06066 0.44194,-0.26516 0.61872,-1.32582 0.35355,-1.90035 -0.26516,-0.57452 -0.44194,-1.76776 -0.0442,-1.90035 0.39775,-0.13258 1.01647,-1.54679 1.01647,-1.54679 z"
         style="fill:#0d3372;fill-opacity:0.94117647;stroke:none" />
      <path
         inkscape:connector-curvature="0"
         id="path4019"
         d="m 685.89358,307.2042 c 0.26516,-0.70711 4.59619,-8.48528 4.15425,-8.13173 -0.44194,0.35355 -3.27037,2.56326 -3.27037,2.56326 0,0 -4.24264,0.35356 -5.03813,1.23744 -0.7955,0.88388 -1.59099,1.76777 -1.94455,2.65165 -0.35355,0.88388 -1.76776,4.41942 -1.76776,4.41942 l 1.32582,1.5026 c 0,0 0.88388,0.79549 0.35355,1.85615 -0.53033,1.06066 -1.5026,2.91682 -1.5026,2.91682 0,0 4.06587,-2.2981 4.06587,-2.74004 0,-0.44194 0.61872,-3.18198 0.61872,-3.18198 l 2.47487,-1.06066 z"
         style="fill:#0d3372;fill-opacity:0.94117647;stroke:none" />
      <path
         inkscape:connector-curvature="0"
         id="path4021"
         d="m 614.29902,288.02393 c 0,0 -2.2981,-2.2981 -2.82843,-2.47488 -0.53033,-0.17677 -3.0052,-0.88388 -3.62392,-0.88388 -0.61872,0 -3.44715,-0.0884 -4.50781,1.5026 -1.06066,1.59099 -2.29809,2.56326 -1.5026,3.44715 0.7955,0.88388 1.59099,1.59099 2.65165,2.29809 1.06066,0.70711 2.56326,1.67938 3.71231,0.97228 1.14905,-0.70711 3.18198,-1.76777 3.18198,-1.76777 0,0 1.06066,-0.97227 1.5026,-1.23744 0.44195,-0.26516 1.41422,-1.85615 1.41422,-1.85615 z"
         style="fill:#0d3372;fill-opacity:0.94117647;stroke:none" />
      <path
         inkscape:connector-curvature="0"
         id="path4023"
         d="m 625.7895,225.00303 -1.41421,6.80591 c 0,0 0.26516,3.71231 0.35355,4.15425 0.0884,0.44194 0.97227,4.50781 1.06066,4.86136 0.0884,0.35355 2.65165,5.39169 2.65165,5.39169 l -1.5026,-4.77297 c 0,0 -0.97227,-4.24264 -1.06066,-4.68459 -0.0884,-0.44194 -0.61872,-4.94974 -0.61872,-4.94974 l 0.26517,-2.74004 z"
         style="fill:#0d3372;fill-opacity:0.94117647;stroke:none" />
      <path
         inkscape:connector-curvature="0"
         id="path4025"
         d="m 690.75494,290.94074 c -0.53033,0.26517 -3.97748,3.09359 -4.41942,3.18198 -0.44194,0.0884 -4.59619,2.2981 -5.03814,2.65165 -0.44194,0.35356 -2.03293,2.2981 -2.03293,2.2981 0,0 2.82843,-1.41421 3.0936,-1.76777 0.26516,-0.35355 3.0052,-1.67938 3.44714,-2.03293 0.44194,-0.35355 2.56326,-1.76777 2.91682,-2.03293 0.35355,-0.26517 2.03293,-2.2981 2.03293,-2.2981 z"
         style="fill:#0d3372;fill-opacity:0.94117647;stroke:none" />
      <path
         inkscape:connector-curvature="0"
         id="path4027"
         d="m 735.65622,223.23527 c 0.44194,0.44194 2.74004,4.06586 2.74004,4.5078 0,0.44195 0.88388,2.2981 1.76776,2.65165 0.88389,0.35356 2.2981,1.14905 3.18199,1.50261 0.88388,0.35355 3.88908,1.23743 3.88908,1.23743 0,0 -2.29809,-1.59099 -2.65165,-1.67938 -0.35355,-0.0884 -2.74004,-1.41421 -3.62392,-2.29809 -0.88388,-0.88389 -1.94454,-2.03293 -2.03293,-2.38649 -0.0884,-0.35355 -1.32583,-2.2981 -1.32583,-2.2981 z"
         style="fill:#0d3372;fill-opacity:0.94117647;stroke:none" />
      <path
         transform="translate(-0.35355339,-0.48613591)"
         d="m 597.99139,245.61961 a 1.0606601,1.259534 0 1 1 -2.12133,0 1.0606601,1.259534 0 1 1 2.12133,0 z"
         sodipodi:ry="1.259534"
         sodipodi:rx="1.0606601"
         sodipodi:cy="245.61961"
         sodipodi:cx="596.93073"
         id="path4029"
         style="opacity:0.72839505;fill:#0d3372;fill-opacity:0.94117647;stroke:none"
         sodipodi:type="arc" />
      <path
         sodipodi:type="arc"
         style="opacity:0.72839505;fill:#0d3372;fill-opacity:0.94117647;stroke:none"
         id="path4031"
         sodipodi:cx="596.93073"
         sodipodi:cy="245.61961"
         sodipodi:rx="1.0606601"
         sodipodi:ry="1.259534"
         d="m 597.99139,245.61961 a 1.0606601,1.259534 0 1 1 -2.12133,0 1.0606601,1.259534 0 1 1 2.12133,0 z"
         transform="translate(-14.495689,7.4688154)" />
      <path
         transform="translate(-27.400388,17.014757)"
         d="m 597.99139,245.61961 a 1.0606601,1.259534 0 1 1 -2.12133,0 1.0606601,1.259534 0 1 1 2.12133,0 z"
         sodipodi:ry="1.259534"
         sodipodi:rx="1.0606601"
         sodipodi:cy="245.61961"
         sodipodi:cx="596.93073"
         id="path4033"
         style="opacity:0.72839505;fill:#0d3372;fill-opacity:0.94117647;stroke:none"
         sodipodi:type="arc" />
      <path
         sodipodi:type="arc"
         style="opacity:0.72839505;fill:#0d3372;fill-opacity:0.94117647;stroke:none"
         id="path4035"
         sodipodi:cx="596.93073"
         sodipodi:cy="245.61961"
         sodipodi:rx="1.0606601"
         sodipodi:ry="1.259534"
         d="m 597.99139,245.61961 a 1.0606601,1.259534 0 1 1 -2.12133,0 1.0606601,1.259534 0 1 1 2.12133,0 z"
         transform="translate(-3.7123108,-21.699339)" />
      <path
         transform="translate(14.318912,-37.255688)"
         d="m 597.99139,245.61961 a 1.0606601,1.259534 0 1 1 -2.12133,0 1.0606601,1.259534 0 1 1 2.12133,0 z"
         sodipodi:ry="1.259534"
         sodipodi:rx="1.0606601"
         sodipodi:cy="245.61961"
         sodipodi:cx="596.93073"
         id="path4037"
         style="opacity:0.72839505;fill:#0d3372;fill-opacity:0.94117647;stroke:none"
         sodipodi:type="arc" />
      <path
         sodipodi:type="arc"
         style="opacity:0.72839505;fill:#0d3372;fill-opacity:0.94117647;stroke:none"
         id="path4039"
         sodipodi:cx="596.93073"
         sodipodi:cy="245.61961"
         sodipodi:rx="1.0606601"
         sodipodi:ry="1.259534"
         d="m 597.99139,245.61961 a 1.0606601,1.259534 0 1 1 -2.12133,0 1.0606601,1.259534 0 1 1 2.12133,0 z"
         transform="translate(-7.2478449,-41.851882)" />
      <path
         transform="translate(18.915106,-62.357979)"
         d="m 597.99139,245.61961 a 1.0606601,1.259534 0 1 1 -2.12133,0 1.0606601,1.259534 0 1 1 2.12133,0 z"
         sodipodi:ry="1.259534"
         sodipodi:rx="1.0606601"
         sodipodi:cy="245.61961"
         sodipodi:cx="596.93073"
         id="path4041"
         style="opacity:0.72839505;fill:#0d3372;fill-opacity:0.94117647;stroke:none"
         sodipodi:type="arc" />
      <path
         sodipodi:type="arc"
         style="opacity:0.72839505;fill:#0d3372;fill-opacity:0.94117647;stroke:none"
         id="path4043"
         sodipodi:cx="596.93073"
         sodipodi:cy="245.61961"
         sodipodi:rx="1.0606601"
         sodipodi:ry="1.259534"
         d="m 597.99139,245.61961 a 1.0606601,1.259534 0 1 1 -2.12133,0 1.0606601,1.259534 0 1 1 2.12133,0 z"
         transform="translate(42.77996,-66.247066)" />
      <path
         transform="translate(74.776542,-11.269514)"
         d="m 597.99139,245.61961 a 1.0606601,1.259534 0 1 1 -2.12133,0 1.0606601,1.259534 0 1 1 2.12133,0 z"
         sodipodi:ry="1.259534"
         sodipodi:rx="1.0606601"
         sodipodi:cy="245.61961"
         sodipodi:cx="596.93073"
         id="path4045"
         style="opacity:0.72839505;fill:#0d3372;fill-opacity:0.94117647;stroke:none"
         sodipodi:type="arc" />
      <path
         sodipodi:type="arc"
         style="opacity:0.72839505;fill:#0d3372;fill-opacity:0.94117647;stroke:none"
         id="path4047"
         sodipodi:cx="596.93073"
         sodipodi:cy="245.61961"
         sodipodi:rx="1.0606601"
         sodipodi:ry="1.259534"
         d="m 597.99139,245.61961 a 1.0606601,1.259534 0 1 1 -2.12133,0 1.0606601,1.259534 0 1 1 2.12133,0 z"
         transform="translate(103.23759,-20.815456)" />
      <path
         transform="translate(101.46982,-46.2713)"
         d="m 597.99139,245.61961 a 1.0606601,1.259534 0 1 1 -2.12133,0 1.0606601,1.259534 0 1 1 2.12133,0 z"
         sodipodi:ry="1.259534"
         sodipodi:rx="1.0606601"
         sodipodi:cy="245.61961"
         sodipodi:cx="596.93073"
         id="path4049"
         style="opacity:0.72839505;fill:#0d3372;fill-opacity:0.94117647;stroke:none"
         sodipodi:type="arc" />
      <path
         sodipodi:type="arc"
         style="opacity:0.72839505;fill:#0d3372;fill-opacity:0.94117647;stroke:none"
         id="path4051"
         sodipodi:cx="596.93073"
         sodipodi:cy="245.61961"
         sodipodi:rx="1.0606601"
         sodipodi:ry="1.259534"
         d="m 597.99139,245.61961 a 1.0606601,1.259534 0 1 1 -2.12133,0 1.0606601,1.259534 0 1 1 2.12133,0 z"
         transform="translate(96.873626,-75.616231)" />
      <path
         transform="translate(79.372733,-79.151765)"
         d="m 597.99139,245.61961 a 1.0606601,1.259534 0 1 1 -2.12133,0 1.0606601,1.259534 0 1 1 2.12133,0 z"
         sodipodi:ry="1.259534"
         sodipodi:rx="1.0606601"
         sodipodi:cy="245.61961"
         sodipodi:cx="596.93073"
         id="path4053"
         style="opacity:0.72839505;fill:#0d3372;fill-opacity:0.94117647;stroke:none"
         sodipodi:type="arc" />
      <path
         sodipodi:type="arc"
         style="opacity:0.72839505;fill:#0d3372;fill-opacity:0.94117647;stroke:none"
         id="path4055"
         sodipodi:cx="596.93073"
         sodipodi:cy="245.61961"
         sodipodi:rx="1.0606601"
         sodipodi:ry="1.259534"
         d="m 597.99139,245.61961 a 1.0606601,1.259534 0 1 1 -2.12133,0 1.0606601,1.259534 0 1 1 2.12133,0 z"
         transform="translate(91.039995,-14.805047)" />
      <path
         sodipodi:type="arc"
         style="opacity:0.72839505;fill:#0d3372;fill-opacity:0.94117647;stroke:none"
         id="path4057"
         sodipodi:cx="596.93073"
         sodipodi:cy="245.61961"
         sodipodi:rx="1.0606601"
         sodipodi:ry="1.259534"
         d="m 597.99139,245.61961 a 1.0606601,1.259534 0 1 1 -2.12133,0 1.0606601,1.259534 0 1 1 2.12133,0 z"
         transform="translate(29.521708,5.3474954)" />
      <path
         transform="translate(-6.0104078,24.616155)"
         d="m 597.99139,245.61961 a 1.0606601,1.259534 0 1 1 -2.12133,0 1.0606601,1.259534 0 1 1 2.12133,0 z"
         sodipodi:ry="1.259534"
         sodipodi:rx="1.0606601"
         sodipodi:cy="245.61961"
         sodipodi:cx="596.93073"
         id="path4059"
         style="opacity:0.72839505;fill:#0d3372;fill-opacity:0.94117647;stroke:none"
         sodipodi:type="arc" />
      <path
         sodipodi:type="arc"
         style="opacity:0.72839505;fill:#0d3372;fill-opacity:0.94117647;stroke:none"
         id="path4061"
         sodipodi:cx="596.93073"
         sodipodi:cy="245.61961"
         sodipodi:rx="1.0606601"
         sodipodi:ry="1.259534"
         d="m 597.99139,245.61961 a 1.0606601,1.259534 0 1 1 -2.12133,0 1.0606601,1.259534 0 1 1 2.12133,0 z"
         transform="translate(52.502678,43.354485)" />
      <path
         transform="translate(74.422988,15.423767)"
         d="m 597.99139,245.61961 a 1.0606601,1.259534 0 1 1 -2.12133,0 1.0606601,1.259534 0 1 1 2.12133,0 z"
         sodipodi:ry="1.259534"
         sodipodi:rx="1.0606601"
         sodipodi:cy="245.61961"
         sodipodi:cx="596.93073"
         id="path4063"
         style="opacity:0.72839505;fill:#0d3372;fill-opacity:0.94117647;stroke:none"
         sodipodi:type="arc" />
      <path
         sodipodi:type="arc"
         style="opacity:0.72839505;fill:#0d3372;fill-opacity:0.94117647;stroke:none"
         id="path4065"
         sodipodi:cx="596.93073"
         sodipodi:cy="245.61961"
         sodipodi:rx="1.0606601"
         sodipodi:ry="1.259534"
         d="m 597.99139,245.61961 a 1.0606601,1.259534 0 1 1 -2.12133,0 1.0606601,1.259534 0 1 1 2.12133,0 z"
         transform="translate(100.23239,22.141281)" />
      <path
         sodipodi:type="arc"
         style="opacity:0.72839505;fill:#0d3372;fill-opacity:0.94117647;stroke:none"
         id="path4067"
         sodipodi:cx="596.93073"
         sodipodi:cy="245.61961"
         sodipodi:rx="1.0606601"
         sodipodi:ry="1.259534"
         d="m 597.99139,245.61961 a 1.0606601,1.259534 0 1 1 -2.12133,0 1.0606601,1.259534 0 1 1 2.12133,0 z"
         transform="translate(50.026542,-35.269514)" />
      <path
         transform="translate(48.276542,17.230486)"
         d="m 597.99139,245.61961 a 1.0606601,1.259534 0 1 1 -2.12133,0 1.0606601,1.259534 0 1 1 2.12133,0 z"
         sodipodi:ry="1.259534"
         sodipodi:rx="1.0606601"
         sodipodi:cy="245.61961"
         sodipodi:cx="596.93073"
         id="path4069"
         style="opacity:0.72839505;fill:#0d3372;fill-opacity:0.94117647;stroke:none"
         sodipodi:type="arc" />
      <path
         sodipodi:type="arc"
         style="opacity:0.72839505;fill:#0d3372;fill-opacity:0.94117647;stroke:none"
         id="path4071"
         sodipodi:cx="596.93073"
         sodipodi:cy="245.61961"
         sodipodi:rx="1.0606601"
         sodipodi:ry="1.259534"
         d="m 597.99139,245.61961 a 1.0606601,1.259534 0 1 1 -2.12133,0 1.0606601,1.259534 0 1 1 2.12133,0 z"
         transform="translate(63.526542,-62.019514)" />
      <path
         transform="translate(56.026542,-56.019514)"
         d="m 597.99139,245.61961 a 1.0606601,1.259534 0 1 1 -2.12133,0 1.0606601,1.259534 0 1 1 2.12133,0 z"
         sodipodi:ry="1.259534"
         sodipodi:rx="1.0606601"
         sodipodi:cy="245.61961"
         sodipodi:cx="596.93073"
         id="path4073"
         style="opacity:0.72839505;fill:#0d3372;fill-opacity:0.94117647;stroke:none"
         sodipodi:type="arc" />
      <path
         sodipodi:type="arc"
         style="opacity:0.72839505;fill:#0d3372;fill-opacity:0.94117647;stroke:none"
         id="path4075"
         sodipodi:cx="596.93073"
         sodipodi:cy="245.61961"
         sodipodi:rx="1.0606601"
         sodipodi:ry="1.259534"
         d="m 597.99139,245.61961 a 1.0606601,1.259534 0 1 1 -2.12133,0 1.0606601,1.259534 0 1 1 2.12133,0 z"
         transform="translate(32.651542,-44.894514)" />
      <path
         transform="translate(-22.502787,-27.923951)"
         d="m 597.99139,245.61961 a 1.0606601,1.259534 0 1 1 -2.12133,0 1.0606601,1.259534 0 1 1 2.12133,0 z"
         sodipodi:ry="1.259534"
         sodipodi:rx="1.0606601"
         sodipodi:cy="245.61961"
         sodipodi:cx="596.93073"
         id="path4077"
         style="opacity:0.72839505;fill:#0d3372;fill-opacity:0.94117647;stroke:none"
         sodipodi:type="arc" />
      <path
         sodipodi:type="arc"
         style="opacity:0.72839505;fill:#0d3372;fill-opacity:0.94117647;stroke:none"
         id="path4079"
         sodipodi:cx="596.93073"
         sodipodi:cy="245.61961"
         sodipodi:rx="1.0606601"
         sodipodi:ry="1.259534"
         d="m 597.99139,245.61961 a 1.0606601,1.259534 0 1 1 -2.12133,0 1.0606601,1.259534 0 1 1 2.12133,0 z"
         transform="translate(38.66195,59.403737)" />
      <path
         transform="translate(127.0503,46.499039)"
         d="m 597.99139,245.61961 a 1.0606601,1.259534 0 1 1 -2.12133,0 1.0606601,1.259534 0 1 1 2.12133,0 z"
         sodipodi:ry="1.259534"
         sodipodi:rx="1.0606601"
         sodipodi:cy="245.61961"
         sodipodi:cx="596.93073"
         id="path4081"
         style="opacity:0.72839505;fill:#0d3372;fill-opacity:0.94117647;stroke:none"
         sodipodi:type="arc" />
      <path
         sodipodi:type="arc"
         style="opacity:0.72839505;fill:#0d3372;fill-opacity:0.94117647;stroke:none"
         id="path4083"
         sodipodi:cx="596.93073"
         sodipodi:cy="245.61961"
         sodipodi:rx="1.0606601"
         sodipodi:ry="1.259534"
         d="m 597.99139,245.61961 a 1.0606601,1.259534 0 1 1 -2.12133,0 1.0606601,1.259534 0 1 1 2.12133,0 z"
         transform="translate(133.59104,39.604748)" />
      <path
         transform="translate(130.23228,12.557914)"
         d="m 597.99139,245.61961 a 1.0606601,1.259534 0 1 1 -2.12133,0 1.0606601,1.259534 0 1 1 2.12133,0 z"
         sodipodi:ry="1.259534"
         sodipodi:rx="1.0606601"
         sodipodi:cy="245.61961"
         sodipodi:cx="596.93073"
         id="path4085"
         style="opacity:0.72839505;fill:#0d3372;fill-opacity:0.94117647;stroke:none"
         sodipodi:type="arc" />
      <path
         sodipodi:type="arc"
         style="opacity:0.72839505;fill:#0d3372;fill-opacity:0.94117647;stroke:none"
         id="path4087"
         sodipodi:cx="596.93073"
         sodipodi:cy="245.61961"
         sodipodi:rx="1.0606601"
         sodipodi:ry="1.259534"
         d="m 597.99139,245.61961 a 1.0606601,1.259534 0 1 1 -2.12133,0 1.0606601,1.259534 0 1 1 2.12133,0 z"
         transform="translate(160.10754,3.7190792)" />
      <path
         transform="translate(149.85449,31.649797)"
         d="m 597.99139,245.61961 a 1.0606601,1.259534 0 1 1 -2.12133,0 1.0606601,1.259534 0 1 1 2.12133,0 z"
         sodipodi:ry="1.259534"
         sodipodi:rx="1.0606601"
         sodipodi:cy="245.61961"
         sodipodi:cx="596.93073"
         id="path4089"
         style="opacity:0.72839505;fill:#0d3372;fill-opacity:0.94117647;stroke:none"
         sodipodi:type="arc" />
      <path
         sodipodi:type="arc"
         style="opacity:0.72839505;fill:#0d3372;fill-opacity:0.94117647;stroke:none"
         id="path4091"
         sodipodi:cx="596.93073"
         sodipodi:cy="245.61961"
         sodipodi:rx="1.0606601"
         sodipodi:ry="1.259534"
         d="m 597.99139,245.61961 a 1.0606601,1.259534 0 1 1 -2.12133,0 1.0606601,1.259534 0 1 1 2.12133,0 z"
         transform="translate(136.41946,-12.3676)" />
      <path
         transform="translate(124.04509,-55.14756)"
         d="m 597.99139,245.61961 a 1.0606601,1.259534 0 1 1 -2.12133,0 1.0606601,1.259534 0 1 1 2.12133,0 z"
         sodipodi:ry="1.259534"
         sodipodi:rx="1.0606601"
         sodipodi:cy="245.61961"
         sodipodi:cx="596.93073"
         id="path4093"
         style="opacity:0.72839505;fill:#0d3372;fill-opacity:0.94117647;stroke:none"
         sodipodi:type="arc" />
    </g>
  </g>
  <g
     inkscape:groupmode="layer"
     id="layer3"
     inkscape:label="caption">
    <text
       xml:space="preserve"
       style="font-size:35.73464966000000231px;font-style:normal;font-variant:normal;font-weight:500;font-stretch:normal;text-align:center;line-height:125%;letter-spacing:0px;word-spacing:0px;text-anchor:middle;opacity:0.6;fill:#ffffff;fill-opacity:1;stroke:none;font-family:Inconsolata;-inkscape-font-specification:Inconsolata Medium"
       x="259.42352"
       y="51.986862"
       id="text3809"
       sodipodi:linespacing="125%"><tspan
         sodipodi:role="line"
         x="259.42352"
         y="51.986862"
         id="tspan3813"
         style="font-style:normal;font-variant:normal;font-weight:normal;font-stretch:normal;font-family:FreeSans;-inkscape-font-specification:FreeSans;fill:#ffffff;fill-opacity:1">IT'S DANGEROUS TO GO</tspan><tspan
         sodipodi:role="line"
         x="259.42352"
         y="96.655174"
         style="font-style:normal;font-variant:normal;font-weight:normal;font-stretch:normal;font-family:FreeSans;-inkscape-font-specification:FreeSans;fill:#ffffff;fill-opacity:1"
         id="tspan3817">ALONE! TAKE THIS</tspan></text>
  </g>
</svg>
