<?xml version="1.0" encoding="UTF-8" standalone="no"?>
<!-- Created with Inkscape (http://www.inkscape.org/) -->

<svg
   xmlns:dc="http://purl.org/dc/elements/1.1/"
   xmlns:cc="http://creativecommons.org/ns#"
   xmlns:rdf="http://www.w3.org/1999/02/22-rdf-syntax-ns#"
   xmlns:svg="http://www.w3.org/2000/svg"
   xmlns="http://www.w3.org/2000/svg"
   xmlns:xlink="http://www.w3.org/1999/xlink"
   xmlns:sodipodi="http://sodipodi.sourceforge.net/DTD/sodipodi-0.dtd"
   xmlns:inkscape="http://www.inkscape.org/namespaces/inkscape"
   width="512"
   height="512"
   id="svg2"
   version="1.1"
   inkscape:version="0.48.3.1 r9886"
   sodipodi:docname="trader.svg"
   inkscape:export-filename="/home/mateusz/programming/c/theseus/gfx/trader.png"
   inkscape:export-xdpi="90"
   inkscape:export-ydpi="90">
  <defs
     id="defs4">
    <linearGradient
       inkscape:collect="always"
       id="linearGradient5656">
      <stop
         style="stop-color:#000000;stop-opacity:1;"
         offset="0"
         id="stop5658" />
      <stop
         style="stop-color:#000000;stop-opacity:0;"
         offset="1"
         id="stop5660" />
    </linearGradient>
    <linearGradient
       id="linearGradient5648">
      <stop
         style="stop-color:#ffffff;stop-opacity:0.16862746;"
         offset="0"
         id="stop5650" />
      <stop
         style="stop-color:#ffffff;stop-opacity:0;"
         offset="1"
         id="stop5652" />
    </linearGradient>
    <linearGradient
       inkscape:collect="always"
       xlink:href="#linearGradient5648"
       id="linearGradient5654"
       x1="-10.399495"
       y1="379.41748"
       x2="232.43105"
       y2="239.41034"
       gradientUnits="userSpaceOnUse" />
    <linearGradient
       inkscape:collect="always"
       xlink:href="#linearGradient5656"
       id="linearGradient5662"
       x1="-10.399495"
       y1="379.41748"
       x2="-10.399495"
       y2="108.09708"
       gradientUnits="userSpaceOnUse" />
  </defs>
  <sodipodi:namedview
     id="base"
     pagecolor="#ffffff"
     bordercolor="#666666"
     borderopacity="1.0"
     inkscape:pageopacity="0.0"
     inkscape:pageshadow="2"
     inkscape:zoom="1.2830121"
     inkscape:cx="214.19743"
     inkscape:cy="324.43347"
     inkscape:document-units="px"
     inkscape:current-layer="g4875"
     showgrid="false"
     inkscape:window-width="1364"
     inkscape:window-height="747"
     inkscape:window-x="0"
     inkscape:window-y="0"
     inkscape:window-maximized="0" />
  <metadata
     id="metadata7">
    <rdf:RDF>
      <cc:Work
         rdf:about="">
        <dc:format>image/svg+xml</dc:format>
        <dc:type
           rdf:resource="http://purl.org/dc/dcmitype/StillImage" />
        <dc:title></dc:title>
      </cc:Work>
    </rdf:RDF>
  </metadata>
  <g
     inkscape:label="background"
     inkscape:groupmode="layer"
     id="layer1"
     transform="translate(0,-540.36218)"
     style="opacity:0.93999999"
     sodipodi:insensitive="true">
    <rect
       style="fill:#d8433f;fill-opacity:1;stroke:none"
       id="rect3774"
       width="512"
       height="512"
       x="0"
       y="540.36218" />
  </g>
  <g
     inkscape:groupmode="layer"
     id="layer2"
     inkscape:label="rat">
    <g
       id="g5622"
       transform="matrix(0.51899351,0,0,0.51899351,-288.36109,34.900233)"
       style="opacity:0.6">
      <path
         inkscape:connector-curvature="0"
         id="path5090"
         d="m 137.88582,58.037446 c -2.82842,2.828427 -19.20461,16.598721 -28.28427,25.455844 -8.59321,8.382593 -17.730746,16.423396 -24.748736,26.16295 -6.719449,9.32524 -11.080645,20.14647 -16.263456,30.40559 -4.94411,9.78663 -8.977782,20.02628 -14.142136,29.69849 -4.778868,8.95024 -9.266802,18.20142 -15.556349,26.16295 -6.716321,8.50176 -15.182943,15.49015 -23.334524,22.62742 -8.5856041,7.51729 -18.4292328,13.5337 -26.870058,21.2132 -10.851403,9.87265 -23.754447,18.7437 -30.405591,31.8198 -6.623619,13.02199 -7.125622,28.53836 -7.778175,43.13352 -0.591901,13.23861 -0.356262,26.9305 3.535534,39.59798 2.850694,9.27878 8.521554,17.54185 14.142136,25.45584 8.409859,11.8414 17.96695,23.07141 28.9913779,32.52691 11.512997,9.87454 24.3831051,18.4561 38.1837661,24.74874 13.167944,6.00414 27.448226,9.61647 41.7193,12.02082 17.456776,2.94107 35.373781,4.0696 53.033011,2.82842 12.21957,-0.85885 24.26416,-3.77622 36.06244,-7.07106 17.16488,-4.79354 33.79077,-11.44231 50.20459,-18.38478 13.49584,-5.70827 25.57176,-14.85072 39.59797,-19.09188 8.20007,-2.47949 16.89274,-3.28639 25.45585,-3.53554 11.81776,-0.34385 23.82948,0.19552 35.35534,2.82843 7.63835,1.74487 15.037,4.74243 21.92031,8.48528 7.41413,4.03149 14.9234,8.52027 20.50609,14.84924 5.51257,6.24948 9.82681,13.88098 12.02082,21.92031 1.98676,7.27992 -6.46798,20.29021 0.70711,22.62742 2.55527,0.83235 3.83134,-3.92032 4.94974,-6.36396 2.50082,-5.46416 3.6785,-11.67012 3.53554,-17.67767 -0.16183,-6.80085 -1.99365,-13.67206 -4.94975,-19.79899 -3.8718,-8.02484 -9.49983,-15.41302 -16.26346,-21.2132 -8.56773,-7.3473 -18.99923,-12.66973 -29.69848,-16.26346 -12.19719,-4.09686 -25.32085,-5.33938 -38.18377,-5.65685 -12.07477,-0.29801 -24.34037,0.62315 -36.06244,3.53553 -9.64275,2.39577 -18.2853,7.79471 -27.57717,11.31371 -10.73536,4.06568 -21.447,8.31147 -32.52691,11.31371 -15.30341,4.14665 -46.66905,9.19239 -46.66905,9.19239 0,0 -45.38057,-0.80648 -67.17514,-6.36397 C 65.662717,412.54876 50.088297,406.59261 36.769553,397.4487 26.188738,390.1845 17.834727,379.95887 9.8994949,369.87154 2.5002265,360.46553 -5.492373,350.84717 -9.1923882,339.46595 c -2.1912248,-6.74019 -2.2001678,-14.16626 -1.4437608,-21.21321 0.402842,-3.75301 0.9104834,-7.83795 3.1490923,-10.87703 2.4425795,-3.31599 10.3154838,-6.80064 10.3154838,-6.80064 0,0 5.2983106,13.16237 9.8994949,18.38478 5.36151,6.08539 12.405221,10.80897 19.79899,14.14213 5.733636,2.58476 13.089293,0.84951 18.384776,4.24265 5.517663,3.53551 7.451956,10.85848 12.020816,15.55634 7.006728,7.20457 17.421593,10.96556 23.334523,19.09189 3.425078,4.7072 2.815403,11.64863 6.363961,16.26345 5.345091,6.95118 21.213202,15.55635 21.213202,15.55635 l 10.42983,14.67247 c 0,0 2.65165,3.53553 3.71231,4.24264 1.06066,0.70711 6.36396,5.3033 7.42462,5.3033 1.06066,0 4.24264,-2.82843 4.24264,-2.82843 l -0.88388,-5.12652 c 0,0 -5.12653,-3.71231 -5.65686,-4.5962 -0.53033,-0.88388 -2.65165,-5.83363 -1.59099,-5.48007 1.06066,0.35355 6.18719,2.65165 7.24785,4.06586 1.06066,1.41421 1.94454,1.94454 3.88908,4.94975 1.94455,3.0052 5.3033,6.18718 7.24785,7.6014 1.94454,1.41421 4.94975,2.65165 7.07107,3.0052 2.12132,0.35355 5.12652,1.06066 6.18718,0.88388 1.06066,-0.17677 3.71231,-1.59099 3.53553,-2.82842 -0.17677,-1.23744 1.06066,-3.88909 -1.41421,-5.48008 -2.47487,-1.59099 -4.94975,-3.71231 -4.94975,-3.71231 0,0 2.2981,-1.41422 4.06587,-1.23744 1.76776,0.17678 5.48007,1.06066 6.71751,1.94454 1.23744,0.88389 11.66726,0.70711 11.66726,0.70711 0,0 0,-5.48008 -0.7071,-6.01041 -0.70711,-0.53033 -4.06587,-4.41941 -4.06587,-4.41941 0,0 5.12653,-1.59099 5.48008,-2.47488 0.35355,-0.88388 1.76777,-3.53553 1.76777,-3.53553 0,0 -1.76777,-2.65165 -3.71231,-3.71231 -1.94455,-1.06066 -5.83363,-5.12653 -9.54595,-6.18719 -3.71231,-1.06066 -10.78337,-1.41421 -15.9099,-1.59099 -5.12652,-0.17677 -10.07627,-0.7071 -10.25305,-2.29809 -0.17677,-1.59099 0.35356,-2.47488 0.35356,-2.47488 0,0 25.68334,1.02742 38.18376,-1.41421 5.41531,-1.05774 10.32642,-3.89837 15.55635,-5.65685 5.67093,-1.90676 11.23422,-4.3922 17.14734,-5.30331 20.03431,-3.08695 41.24967,4.96151 60.81119,-0.35355 7.49051,-2.03525 20.15254,-11.66726 20.15254,-11.66726"
         style="fill:url(#linearGradient5654);fill-opacity:1;stroke:url(#linearGradient5662);stroke-width:1.00005281;stroke-linecap:butt;stroke-linejoin:miter;stroke-miterlimit:4;stroke-opacity:1;stroke-dasharray:none"
         sodipodi:nodetypes="caaaaaaaaaaaaaaaaaaaaaaaaaaaaaaaaacaaaaaacaaaaaaccssccssssssssscsscscscsssscaaaac" />
      <path
         inkscape:connector-curvature="0"
         id="path5066"
         d="m 348.8125,231.6875 c 0,0 -0.37824,-3.09579 -0.875,-4.5625 -0.31382,-0.92658 -0.75556,-1.82073 -1.3125,-2.625 -0.88962,-1.28468 -2.30988,-2.14458 -3.1875,-3.4375 -0.8426,-1.24133 -1.02331,-2.87291 -1.9375,-4.0625 -1.68398,-2.1913 -3.83398,-4.1525 -6.3125,-5.375 -0.80255,-0.39585 -1.73593,-0.66419 -2.625,-0.5625 -1.12039,0.12815 -2.14518,0.78158 -3.0625,1.4375 -1.39025,0.99409 -2.76723,2.1747 -3.5625,3.6875 -0.78138,1.48638 -0.84857,3.26509 -1,4.9375 -0.19542,2.15824 -0.47814,4.41856 0.125,6.5 0.44749,1.54429 1.40011,2.95226 2.5,4.125 1.32051,1.40797 2.9146,2.71465 4.75,3.3125 0.95104,0.30978 2.01223,0.2198 3,0.0625 1.74383,-0.2777 3.42101,-0.95954 5,-1.75 1.43639,-0.71908 2.4055,-2.49295 4,-2.6875 0.96821,-0.11814 1.7894,0.83077 2.75,1 0.57449,0.10121 1.75,0 1.75,0 z"
         style="fill:#000000;stroke:#000000;stroke-width:1px;stroke-linecap:butt;stroke-linejoin:miter;stroke-opacity:1"
         sodipodi:nodetypes="caaaaaaaaaaaaaaaac" />
      <path
         inkscape:connector-curvature="0"
         id="path5068"
         d="m 403.5,210.3125 c 0,0 2.83159,-0.97878 4,-1.875 1.10272,-0.84583 2.07705,-1.93899 2.6875,-3.1875 0.6174,-1.26274 0.79818,-2.72151 0.875,-4.125 0.0801,-1.46342 -0.0228,-2.9693 -0.4375,-4.375 -0.50359,-1.7069 -1.2731,-3.40416 -2.4375,-4.75 -0.86993,-1.00549 -2.009,-1.83531 -3.25,-2.3125 -0.84178,-0.32368 -1.86011,-0.67138 -2.6875,-0.3125 -1.09328,0.47422 -1.67075,1.77327 -2.125,2.875 -0.60196,1.45999 -0.80075,3.11235 -0.6875,4.6875 0.18861,2.62327 1.48351,5.04663 2.25,7.5625 0.59147,1.94141 1.8125,5.8125 1.8125,5.8125 z"
         style="fill:#000000;stroke:#000000;stroke-width:1px;stroke-linecap:butt;stroke-linejoin:miter;stroke-opacity:1"
         sodipodi:nodetypes="caaaaaaaaaac" />
      <path
         inkscape:connector-curvature="0"
         id="path5070"
         d="m 298.39906,170.90937 c 0,0 -3.01349,-5.91915 -4.41942,-8.92723 -1.82653,-3.90798 -2.88453,-8.21391 -5.21491,-11.84404 -2.29991,-3.58266 -5.22612,-6.80681 -8.48528,-9.54594 -2.91683,-2.45142 -6.18727,-4.58987 -9.72272,-6.01041 -2.87938,-1.15693 -6.01071,-1.6978 -9.104,-1.94454 -2.29383,-0.18297 -4.64507,-0.13241 -6.89429,0.35355 -2.59904,0.56154 -5.2567,1.37719 -7.42462,2.91682 -1.8056,1.28231 -3.31562,3.07003 -4.33103,5.03814 -1.34986,2.61637 -1.76515,5.65123 -2.12132,8.57367 -0.26376,2.16423 -0.22163,4.37178 0,6.54073 0.28135,2.75344 0.71744,5.53649 1.67938,8.13173 1.18256,3.19043 3.02508,6.12135 4.94975,8.92722 1.45528,2.12157 3.12173,4.11169 4.94974,5.92202 1.94869,1.92985 3.99955,3.82523 6.36397,5.21492 2.21216,1.3002 4.64668,2.30861 7.15945,2.82842 1.81859,0.3762 3.94523,-0.72537 5.56847,0.17678 1.02138,0.56766 1.49736,1.83724 1.94454,2.91682 0.45993,1.11036 0.70711,3.53553 0.70711,3.53553"
         style="fill:none;stroke:#000000;stroke-width:1px;stroke-linecap:butt;stroke-linejoin:miter;stroke-opacity:1"
         sodipodi:nodetypes="caaaaaaaaaaaaaaaaac" />
      <path
         inkscape:connector-curvature="0"
         id="path5072"
         d="m 259.06625,135.37725 c 0,0 3.33708,0.95634 4.94974,1.59099 2.96804,1.16806 5.8864,2.49445 8.66206,4.06586 2.06931,1.17152 4.1337,2.41018 5.92202,3.97748 1.50704,1.32078 2.75144,2.92273 3.97748,4.50781 0.86993,1.12469 1.79186,2.24397 2.38648,3.53553 0.74132,1.61022 1.26808,3.35988 1.41422,5.12652 0.16362,1.978 -0.21054,3.97969 -0.61872,5.92202 -0.4963,2.36167 -2.41853,4.49009 -2.20971,6.89429 0.11518,1.32606 0.73657,2.81567 1.85616,3.53554 0.89353,0.57452 2.13101,0.022 3.18198,0.17677 0.86959,0.12802 2.56326,0.61872 2.56326,0.61872"
         style="fill:none;stroke:#000000;stroke-width:1px;stroke-linecap:butt;stroke-linejoin:miter;stroke-opacity:1"
         sodipodi:nodetypes="caaaaaaaaaac" />
      <path
         inkscape:connector-curvature="0"
         id="path5074"
         d="m 381.13056,110.18657 c 0,0 4.98308,-3.84739 7.42462,-5.83363 2.27083,-1.84737 4.81901,-3.4286 6.71751,-5.656854 1.55983,-1.830755 2.08417,-4.416904 3.71231,-6.187184 1.22882,-1.336096 2.61483,-3.378436 4.41942,-3.181981 1.49349,0.162587 2.21561,2.08068 3.0052,3.358757 1.59881,2.587911 2.30119,5.633087 3.35876,8.485282 1.1273,3.04024 2.36535,6.0544 3.18198,9.19239 0.67829,2.60641 1.48498,5.26265 1.41421,7.95495 -0.0684,2.60052 -1.12811,5.07985 -1.76776,7.6014 -0.60107,2.36947 -1.0874,4.78174 -1.94455,7.07106 -1.19213,3.184 -2.59073,6.32622 -4.41941,9.19239 -1.14845,1.80002 -4.06587,4.94975 -4.06587,4.94975"
         style="fill:none;stroke:#000000;stroke-width:1px;stroke-linecap:butt;stroke-linejoin:miter;stroke-opacity:1"
         sodipodi:nodetypes="caaaaaaaaaaac" />
      <path
         inkscape:connector-curvature="0"
         id="path5076"
         d="m 392.79782,146.07224 c 0,0 2.79173,-3.02753 3.18198,-4.94975 0.34501,-1.69938 -0.29753,-3.49461 -0.88389,-5.12652 -0.96385,-2.68253 -2.89764,-4.91146 -4.24264,-7.42462 -0.6839,-1.27788 -1.81292,-2.4457 -1.94454,-3.88909 -0.21169,-2.32147 1.09569,-4.54646 1.94454,-6.71751 0.76768,-1.96345 2.02166,-3.70915 2.82843,-5.65686 0.92702,-2.23801 1.83565,-4.51643 2.2981,-6.89429 0.18034,-0.92728 -0.14667,-1.94088 0.17677,-2.82843 0.57704,-1.58345 2.10929,-2.638414 3.00521,-4.065861 0.67258,-1.071603 0.96754,-2.378791 1.76777,-3.358757 0.52971,-0.648688 1.10746,-1.617219 1.94454,-1.59099 1.12522,0.03526 1.84622,1.364206 2.47487,2.298097 1.02059,1.516134 1.94455,5.126521 1.94455,5.126521"
         style="fill:none;stroke:#000000;stroke-width:1px;stroke-linecap:butt;stroke-linejoin:miter;stroke-opacity:1"
         sodipodi:nodetypes="caaaaaaaaaaaac" />
      <path
         inkscape:connector-curvature="0"
         id="path5078"
         d="m 397.125,292.5 c -0.25,0.125 -1.38177,2.40891 -1.5,3.75 -0.099,1.12334 0.31011,2.24982 0.6875,3.3125 0.43967,1.23807 0.93233,2.52459 1.8125,3.5 1.01809,1.12826 2.39049,1.96396 3.8125,2.5 2.08698,0.78671 4.40359,0.73813 6.625,0.9375 1.07979,0.0969 2.26601,0.58009 3.25,0.125 1.00999,-0.46711 1.1052,-2.05767 2.0625,-2.625 0.65411,-0.38765 1.52033,-0.16121 2.25,-0.375 1.37035,-0.40151 2.81707,-0.80223 3.9375,-1.6875 0.63099,-0.49855 1.05409,-1.23061 1.4375,-1.9375 0.37085,-0.68374 0.65782,-1.42519 0.8125,-2.1875 0.27785,-1.36933 0.83491,-2.94931 0.1875,-4.1875 -0.52492,-1.00393 -2.5625,-1.5625 -2.875,-1.8125"
         style="fill:none;stroke:#000000;stroke-width:1px;stroke-linecap:butt;stroke-linejoin:miter;stroke-opacity:1"
         sodipodi:nodetypes="caaaaaaaaaaaac" />
      <path
         inkscape:connector-curvature="0"
         id="path5080"
         d="m 276,252.25 4.25,2.75 -5.25,0 6.5,4.5 -4.75,-0.25 9.75,6.25 -2.5,2.25 9,5.5 c 0,0 12,7 11,7 -1,0 -5,-0.25 -5,-0.25 l 10.5,6.5 c 0,0 7.13744,3.73412 11,4.75 4.53901,1.1938 9.41089,0.51622 14,1.5 4.20008,0.90038 8.37196,2.15279 12.25,4 4.29891,2.04767 8.00485,5.15917 12,7.75 3.5877,2.32661 6.96771,5.00525 10.75,7 4.22985,2.23079 8.56018,4.5653 13.25,5.5 3.92285,0.78184 8.0424,0.58085 12,0 3.44321,-0.50536 6.88361,-1.45106 10,-3 2.40308,-1.1944 3.9936,-3.79117 6.5,-4.75 1.56441,-0.59847 3.45628,0.15 5,-0.5 3.70727,-1.56099 6.43242,-4.87915 9.25,-7.75 2.32461,-2.36856 4.93054,-4.70485 6.25,-7.75 1.67274,-3.86048 1.56806,-8.29663 1.75,-12.5 0.13713,-3.16808 -0.21028,-6.34221 -0.5,-9.5 -0.46842,-5.10542 -1.12546,-10.19828 -2,-15.25 -0.74163,-4.28401 -1.99739,-8.4679 -2.75,-12.75 -0.64059,-3.64473 -1.40973,-7.3005 -1.5,-11 -0.0939,-3.84665 0.42657,-7.69517 1,-11.5 0.64793,-4.29918 2.34914,-8.42079 2.75,-12.75 0.27671,-2.98837 -0.0673,-6.00441 -0.25,-9 -0.27007,-4.42805 -1.25,-13.25 -1.25,-13.25"
         style="fill:none;stroke:#000000;stroke-width:1px;stroke-linecap:butt;stroke-linejoin:miter;stroke-opacity:1"
         sodipodi:nodetypes="ccccccccsccaaaaaaaaaaaaaaaaaaaac" />
      <path
         inkscape:connector-curvature="0"
         id="path5082"
         d="m 267.5,197 c -1.5,-0.75 -10.5,-3.25 -9.5,-3.25 1,0 7.5,4.25 6.25,4 -1.25,-0.25 -6,-0.25 -6,-0.25 l 5.75,3 -10.5,-0.5 c 0,0 9.5,2.5 8,2.75 -1.5,0.25 -10,1.25 -8.75,1.25 1.25,0 12,3.5 11,3.5 -1,0 -14.25,2.5 -14.25,2.5 l 12.25,1 -7,1.75 c 0,0 7,2.5 6,2.5 -1,0 -8,0.75 -8,0.75 l 10.75,3 -8.5,3.75 9.5,3"
         style="fill:none;stroke:#000000;stroke-width:1px;stroke-linecap:butt;stroke-linejoin:miter;stroke-opacity:1" />
      <path
         inkscape:connector-curvature="0"
         id="path5084"
         d="m 315.36962,365.6289 c -1.41421,0 -16.30167,-2.37228 -24.39518,-3.88909 -6.04341,-1.1326 -12.06164,-2.41612 -18.03122,-3.88909 -13.65816,-3.3701 -28.23258,-4.71857 -40.65864,-11.31371 -5.46488,-2.90049 -10.34174,-7.13872 -14.14214,-12.02081 -4.59731,-5.90582 -7.91607,-12.93591 -9.89949,-20.15255 -1.5666,-5.70002 -1.41422,-17.67767 -1.41422,-17.67767"
         style="fill:none;stroke:#000000;stroke-width:1px;stroke-linecap:butt;stroke-linejoin:miter;stroke-opacity:1"
         sodipodi:nodetypes="caaaaac" />
      <path
         inkscape:connector-curvature="0"
         id="path5086"
         d="m 288.85312,310.12101 14.14214,9.8995 22.98097,14.14213 18.03122,10.25305 7.77817,9.54594 9.19239,9.19239 9.8995,0.53033 9.19239,1.23744 5.48007,2.82843 3.00521,3.88908 -4.06587,-1.23743 c 0,0 -0.7071,2.47487 -2.29809,2.47487 -1.59099,0 -5.48008,0 -6.71752,-0.35355 -1.23744,-0.35356 -8.13173,-1.41422 -8.13173,-1.41422 l 2.82843,3.53554 6.71751,4.77297 6.36397,4.06586 6.36396,2.12132 3.0052,3.35876 -0.70711,2.65165 c 0,0 -5.65685,0 -6.54073,-0.53033 -0.88389,-0.53033 -6.71752,-3.35876 -8.30851,-4.24264 -1.59099,-0.88388 -10.07627,-4.41942 -10.07627,-4.41942 l -3.88909,-2.29809 5.12653,6.36396 7.24784,7.24784 2.2981,3.35876 c 0,0 3.18198,5.83363 1.76777,6.01041 -1.41422,0.17677 -5.12653,0.53033 -6.18719,-0.17678 -1.06066,-0.70711 -6.54074,-4.94975 -6.54074,-4.94975 0,0 -6.89429,-8.83883 -7.24784,-9.72272 -0.35355,-0.88388 -4.5962,-5.12652 -5.3033,-5.3033 -0.70711,-0.17677 -2.12132,-1.76776 -2.12132,0.88389 0,2.65165 0.17677,6.18718 1.76776,7.07106 1.59099,0.88389 3.35876,6.18719 3.35876,6.18719 0,0 -1.94454,5.3033 -2.65165,4.94975 -0.70711,-0.35356 -4.77297,-7.95496 -4.77297,-7.95496 l -7.42462,-10.25304 -5.12652,-7.07107 -6.36397,-6.18719 -4.77297,-3.35875 -6.18718,-1.76777 -4.5962,-0.17678"
         style="fill:none;stroke:#000000;stroke-width:1px;stroke-linecap:butt;stroke-linejoin:miter;stroke-opacity:1" />
      <path
         inkscape:connector-curvature="0"
         id="path5092"
         d="m 324.20846,333.10198 36.76955,-27.57716"
         style="fill:none;stroke:#000000;stroke-width:1px;stroke-linecap:butt;stroke-linejoin:miter;stroke-opacity:1" />
      <path
         inkscape:connector-curvature="0"
         id="path5094"
         d="m 335.5,214.75 -1.84375,-1.15625 c 0,0 -0.6875,-0.25 -1.3125,0.0937 -0.625,0.34375 -1.03125,0.5 -1.125,1.03125 -0.0937,0.53125 -0.46875,1 -0.125,1.40625 0.34375,0.40625 0.40625,1.3125 1.0625,1.4375 0.65625,0.125 1.65625,0.65625 2.0625,0.6875 0.40625,0.0312 1.8125,0.65625 2.15625,0.84375 0.34375,0.1875 0.75,0.78125 1.46875,0.25 0.71875,-0.53125 0.90625,-0.375 1.09375,-0.75 0.1875,-0.375 0.3125,-0.5 0.375,-1.03125 0.0625,-0.53125 0.25,-0.46875 -0.1875,-0.9375 -0.4375,-0.46875 -0.21875,-0.5 -0.78125,-0.78125 -0.5625,-0.28125 -0.65625,-0.40625 -1.1875,-0.5625 C 336.625,215.125 335.5,214.75 335.5,214.75 z"
         style="fill:#ffffff;stroke:#000000;stroke-width:1px;stroke-linecap:butt;stroke-linejoin:miter;stroke-opacity:1" />
      <path
         inkscape:connector-curvature="0"
         id="path5096"
         d="m 405.9375,194.25 c 0,0 -0.375,-1.875 -0.8125,-2.28125 -0.4375,-0.40625 -0.9375,-0.625 -1.375,-0.75 -0.4375,-0.125 -1.15625,-0.40625 -1.5,-0.15625 -0.34375,0.25 -0.84375,0.1875 -1.125,0.71875 -0.28125,0.53125 -0.53125,0.46875 -0.28125,1.21875 0.25,0.75 0.125,0.8125 0.75,1.5 0.625,0.6875 0.65625,0.90625 1.3125,1.25 0.65625,0.34375 0.21875,0.65625 1.09375,0.34375 0.875,-0.3125 0.75,-0.125 1.0625,-0.375 0.3125,-0.25 0.34375,-0.28125 0.5,-0.53125 0.15625,-0.25 0.375,-0.9375 0.375,-0.9375 z"
         style="fill:#ffffff;stroke:#000000;stroke-width:1px;stroke-linecap:butt;stroke-linejoin:miter;stroke-opacity:1" />
      <path
         inkscape:connector-curvature="0"
         id="path5098"
         d="m 364.5,280 c -2,-0.5 -54.5,14.5 -54.5,14.5 l -56,32 -52.5,39"
         style="opacity:0.4;fill:none;stroke:#ffffff;stroke-width:1px;stroke-linecap:butt;stroke-linejoin:miter;stroke-opacity:1" />
      <path
         inkscape:connector-curvature="0"
         id="path5100"
         d="m 370,286.5 -45,22 -48.5,40.5 -52,48.5"
         style="opacity:0.4;fill:none;stroke:#ffffff;stroke-width:1px;stroke-linecap:butt;stroke-linejoin:miter;stroke-opacity:1" />
      <path
         inkscape:connector-curvature="0"
         id="path5102"
         d="m 373.5,297 -55,37 -60.5,60.5"
         style="opacity:0.4;fill:none;stroke:#ffffff;stroke-width:1px;stroke-linecap:butt;stroke-linejoin:miter;stroke-opacity:1" />
      <path
         inkscape:connector-curvature="0"
         id="path5104"
         d="m 386.5,304 -32,32.5 -19,25"
         style="opacity:0.4;fill:none;stroke:#ffffff;stroke-width:1px;stroke-linecap:butt;stroke-linejoin:miter;stroke-opacity:1" />
      <path
         inkscape:connector-curvature="0"
         id="path5106"
         d="m 425.5,261.5 46,-22"
         style="opacity:0.4;fill:none;stroke:#ffffff;stroke-width:1px;stroke-linecap:butt;stroke-linejoin:miter;stroke-opacity:1" />
      <path
         inkscape:connector-curvature="0"
         id="path5108"
         d="m 426,272 67,-23.5 35.5,-2"
         style="opacity:0.4;fill:none;stroke:#ffffff;stroke-width:1px;stroke-linecap:butt;stroke-linejoin:miter;stroke-opacity:1" />
      <path
         inkscape:connector-curvature="0"
         id="path5110"
         d="m 425,252.5 c 2,0 61.5,-30.5 61.5,-30.5 l 30,-10"
         style="opacity:0.4;fill:none;stroke:#ffffff;stroke-width:1px;stroke-linecap:butt;stroke-linejoin:miter;stroke-opacity:1" />
      <path
         inkscape:connector-curvature="0"
         id="path5112"
         d="m 427.5,280 23.5,-7.5 31,-2"
         style="opacity:0.4;fill:none;stroke:#ffffff;stroke-width:1px;stroke-linecap:butt;stroke-linejoin:miter;stroke-opacity:1" />
    </g>
    <g
       id="g4875"
       transform="matrix(3.09375,0,0,3.09375,504.20161,-465.18282)"
       inkscape:export-filename="/home/mateusz/programming/c/theseus/gfx/enemy.png"
       inkscape:export-xdpi="90"
       inkscape:export-ydpi="90">
      <path
         style="fill:#ffffff;fill-opacity:1;stroke:none"
         d="m -71.21875,188.78125 c -0.107336,-0.0125 -0.212325,8.5e-4 -0.3125,0.0312 -0.219518,0.0666 -0.361404,0.2833 -0.53125,0.4375 -0.185416,0.16834 -0.401284,0.31718 -0.53125,0.53125 -0.107711,0.17741 -0.1875,0.59375 -0.1875,0.59375 0,0 -0.316514,0.27085 -0.453125,0.28125 -0.415454,0.0318 -1.287976,-0.33238 -1.703125,-0.29688 -0.305424,0.0261 -0.751355,0.0592 -1.046875,0.14063 -0.279743,0.0771 -0.390807,0.25055 -0.625,0.42188 -0.215325,0.15753 -0.146216,0.37922 -0.25,0.625 -0.09801,0.2321 0.05273,0.48888 0.109375,0.73437 0.06431,0.27871 0.285696,0.49896 0.46875,0.71875 0.183901,0.2208 0.382352,0.43982 0.625,0.59375 0.169878,0.10777 0.365874,0.17619 0.5625,0.21875 0.183538,0.0397 0.5,-0.125 0.5,-0.125 l -0.9375,0.90625 c 0,0 -0.792135,1.04768 -1.15625,1.59375 -0.365717,0.54847 -0.696194,1.11978 -1.03125,1.6875 -0.481354,0.81561 -0.872404,1.68649 -1.40625,2.46875 -0.35489,0.52003 -0.779878,0.98894 -1.1875,1.46875 -0.587523,0.69158 -1.250464,1.31881 -1.8125,2.03125 -0.463533,0.58758 -0.970027,1.16312 -1.28125,1.84375 -0.384526,0.84094 -0.579297,1.76917 -0.6875,2.6875 -0.0768,0.65182 -0.03765,1.31604 0.03125,1.96875 0.05163,0.4891 0.06963,0.99116 0.1875,1.46875 -0.581718,0.006 -1.919351,0.0179 -2.6875,-0.0625 -1.083029,-0.11328 -2.021093,-0.0799 -2.59375,-0.4375 -0.176756,-0.11039 -0.360879,-0.28034 -0.46875,-0.40625 -0.08713,-0.1017 -0.08906,-0.13658 -0.09375,-0.15625 0.06618,-0.0612 0.197079,-0.13483 0.34375,-0.21875 0.194561,-0.11133 0.596778,-0.13973 1.15625,-0.21875 0.395948,-0.0559 1.164424,0.16542 2.0625,-0.1875 0.531695,-0.20895 1.048605,-0.55569 1.375,-1.125 0.197449,-0.3444 0.449536,-0.88289 0.125,-1.53125 -0.202614,-0.40478 -0.538516,-0.56245 -0.78125,-0.65625 -0.242734,-0.0938 -0.435951,-0.15878 -0.5,-0.1875 -0.367939,-0.16496 -0.819823,-0.40098 -1.375,-0.5 -0.834699,-0.14887 -1.677427,-0.13349 -2.5,0 -0.780361,0.12664 -1.562391,0.35988 -2.25,0.75 -0.555717,0.31529 -1.053853,0.73907 -1.4375,1.25 -0.233717,0.31125 -0.417389,0.68213 -0.5,1.0625 -0.04643,0.21377 -0.03139,0.43976 0,0.65625 0.0421,0.29032 -0.03879,0.79217 0.25,0.84375 0.26561,0.0474 0.38126,-0.41397 0.5,-0.65625 0.111773,-0.22806 0.07072,-0.49321 0.1875,-0.71875 0.204226,-0.39441 0.517251,-0.73015 0.84375,-1.03125 0.34676,-0.31979 0.72763,-0.61554 1.15625,-0.8125 0.689889,-0.31701 1.459891,-0.56975 2.21875,-0.59375 0.636554,-0.0201 1.285384,0.13425 1.875,0.375 0.21933,0.0896 0.391102,0.28353 0.59375,0.40625 0.183473,0.11111 0.45691,0.2717 0.5625,0.3125 -0.01948,-0.0137 -0.183659,0.19143 -0.28125,0.28125 -0.196309,0.18068 -0.357231,0.39477 -0.625,0.5 -0.267896,0.10528 -0.842986,-0.0568 -1.6875,0.0625 -0.411606,0.0581 -1.062089,0.0305 -1.71875,0.40625 -0.173241,0.0991 -0.400849,0.23023 -0.625,0.4375 -0.224151,0.20727 -0.476886,0.5467 -0.5,1 -0.02658,0.5212 0.211679,0.94993 0.46875,1.25 0.257071,0.30007 0.547493,0.49075 0.8125,0.65625 1.118551,0.69856 2.381183,0.59336 3.28125,0.6875 1.204269,0.12594 3.34375,0.0625 3.34375,0.0625 0.09818,-0.004 0.194178,-0.0192 0.28125,-0.0625 0.0051,0.005 0.02612,-0.005 0.03125,0 0.123236,0.12775 0.242615,0.26029 0.375,0.375 0.349686,0.30299 0.808125,0.45387 1.1875,0.71875 0.38282,0.26728 0.75453,0.55419 1.09375,0.875 0.487723,0.46125 0.86698,1.02743 1.34375,1.5 0.492747,0.4884 0.920055,1.11308 1.5625,1.375 0.367049,0.14964 0.867317,0.29617 1.1875,0.0625 0.165313,-0.12064 0.144445,-0.38944 0.15625,-0.59375 0.02549,-0.44121 -0.09249,-0.88089 -0.1875,-1.3125 -0.07014,-0.31863 -0.134225,-0.64625 -0.28125,-0.9375 -0.09388,-0.18598 -0.375,-0.5 -0.375,-0.5 0,0 1.403039,0.2149 2.09375,0.375 0.443256,0.10274 0.87135,0.26357 1.3125,0.375 0.517048,0.13061 1.029915,0.31636 1.5625,0.34375 0.366472,0.0188 0.808742,0.10614 1.09375,-0.125 0.127921,-0.10375 0.191798,-0.30793 0.15625,-0.46875 -0.05566,-0.25183 -0.329262,-0.40214 -0.53125,-0.5625 -0.340013,-0.26994 -0.719623,-0.50086 -1.125,-0.65625 -0.576088,-0.22083 -1.8125,-0.375 -1.8125,-0.375 0,0 0.75503,-0.32905 1.0625,-0.59375 0.30949,-0.26644 0.52812,-0.6259 0.75,-0.96875 0.288637,-0.446 0.56404,-0.90861 0.75,-1.40625 0.179559,-0.48051 0.236148,-0.99845 0.34375,-1.5 0.100275,-0.4674 0.214685,-0.93287 0.28125,-1.40625 0.106243,-0.75555 0.08985,-1.52454 0.1875,-2.28125 0.04603,-0.35668 0.1875,-1.0625 0.1875,-1.0625 0,0 0.532321,0.44786 0.84375,0.59375 0.253989,0.11898 0.532025,0.21765 0.8125,0.21875 0.247599,9.7e-4 0.536463,-0.0199 0.71875,-0.1875 0.138252,-0.12709 0.22904,-0.34811 0.1875,-0.53125 -0.04888,-0.2155 -0.304098,-0.32138 -0.46875,-0.46875 -0.248497,-0.22242 -0.532753,-0.40258 -0.78125,-0.625 -0.186605,-0.16702 -0.399589,-0.31822 -0.53125,-0.53125 -0.121225,-0.19615 -0.195043,-0.42689 -0.21875,-0.65625 -0.04636,-0.44854 0.07802,-0.89965 0.15625,-1.34375 0.109583,-0.62207 0.245997,-1.24183 0.4375,-1.84375 0.22813,-0.71704 0.511846,-1.41845 0.84375,-2.09375 0.39953,-0.81289 0.854149,-1.60271 1.375,-2.34375 0.374265,-0.53248 0.827791,-1.00467 1.25,-1.5 0.34962,-0.41017 0.65884,-0.55244 0.90625,-1.03125 0.142655,-0.27608 0.253914,-0.59749 0.21875,-0.90625 -0.02636,-0.23143 0.112024,-0.89673 -0.07813,-1.03125 -0.205676,-0.14551 -0.576207,0.12135 -0.828125,0.12505 -0.273992,0.004 -0.544469,0.068 -0.8125,0.125 -0.348518,0.0741 -0.684846,0.19784 -1.03125,0.28125 -0.444907,0.10713 -0.88856,0.23412 -1.34375,0.28125 -0.248671,0.0257 -0.75,0 -0.75,0 0,0 -0.06333,-0.44228 -0.125,-0.65625 -0.07125,-0.24721 -0.149502,-0.49777 -0.28125,-0.71875 -0.09084,-0.15236 -0.221053,-0.27814 -0.34375,-0.40625 -0.12747,-0.13309 -0.238169,-0.29943 -0.40625,-0.375 -0.09548,-0.0429 -0.205164,-0.0813 -0.3125,-0.0937 z M -71.15625,192 c 0.238929,-0.004 0.471075,0.099 0.65625,0.25 0.19038,0.15528 0.297057,0.40492 0.40625,0.625 0.0718,0.14472 0.17039,0.30811 0.1875,0.46875 0.01841,0.17286 -0.0099,0.34774 -0.09375,0.5 -0.09977,0.1811 -0.283088,0.31525 -0.46875,0.40625 -0.214621,0.10522 -0.479999,0.14495 -0.71875,0.15625 -0.15168,0.007 -0.295968,-0.007 -0.4375,-0.0625 -0.187387,-0.0728 -0.366134,-0.225 -0.5,-0.375 -0.152275,-0.17062 -0.26484,-0.37008 -0.3125,-0.59375 -0.04148,-0.19464 -0.02582,-0.41541 0.0625,-0.59375 0.111192,-0.22452 0.320611,-0.36435 0.53125,-0.5 0.208167,-0.13406 0.439931,-0.27725 0.6875,-0.28125 z"
         id="path4879"
         inkscape:connector-curvature="0"
         sodipodi:nodetypes="ccsscccsssscccccsssssssscccsccccssscsssssccssssccscssccsssscccccsssscssccsccccsscsssssscsscssscsssssssccccsccscscscccsccccccsscc" />
    </g>
  </g>
</svg>
